<?xml version="1.0" encoding="UTF-8"?>
<svg viewBox="0 0 79 123" xmlns="http://www.w3.org/2000/svg">
 <path d="m12.43283,114.07481c-2.33085-.0436-3.98801-.985-4.35527-2.47423l-.04353-.17649 .00762-.51504c.00897-.60634.00897-.47385 0-1.09179-.00616-.42304-.00354-.52167.0166-.6239 .06254-.31751.19547-.7007.34872-1.00529 .66443-1.32053 2.10795-2.62653 3.94135-3.56584l.27941-.14315-.168-.0562c-.69372-.23219-1.17737-.60411-1.41077-1.08488-.11058-.22777-.14956-.39817-.15123-.66104-.00098-.15486.0062-.25154.02546-.34399 .02588-.12406.02588-.13269-.00015-.2451-.03559-.15395-.03536-.48289.00045-.65129 .12201-.57378.50736-1.16299 1.10452-1.68882 1.35722-1.1951 3.50078-2.04526 5.67415-2.25041 .37766-.03565 1.18393-.0353 1.52674.00067 .6348.06659 1.13278.19509 1.56524.40389 .50403.24336.8543.56683 1.02757.94897l.04235.0934 .14562-.05098c.40572-.14205 1.05126-.31502 1.53455-.41118 1.84644-.36738 3.53487-.25602 4.63246.30554 .39624.20273.71491.46568.91975.75895l.05987.08571 .05526-.10056c.13975-.25429.33679-.50809.58164-.74916 .19685-.1938.26148-.24931.48258-.41446 .74865-.5592 1.78182-.99027 2.98694-1.24625l.3788-.09159c.5899-.16636 1.3118-.28842 2.02424-.34226 .33797-.02554 1.30951-.02555 1.64146-1e-005l.61533.0637 .36279.04427 .0977-.09466c.83901-.81289 2.35977-1.34834 4.25706-1.49891 .31775-.02521 1.30846-.02518 1.64146,0 2.49829.18936 4.3932,1.10319 4.79504,2.31243 .06498.19555.0826.33077.07301.56026-.0076.18097-.01885.24443-.07795.4382-.0087.0286.01164.0211.15576-.05736 .32707-.17807.85497-.38683 1.31226-.51896 .60759-.17555 1.32697-.29961 2.07544-.35792 .31981-.02492 1.32741-.02469 1.64889.00036 1.85923.14491 3.39522.68146 4.22781,1.47683 .29948.28609.51934.63462.58801.93214 .01588.06882.02131.0751.08504.09856 1.8787.69156 3.35055,1.67455 4.01145,2.67908 .11804.17942.23665.41548.29482.58677 .12637.3721.13988.7419.03941,1.07859l-.03373.11302 .02842.10237c.14826.53413.06706,1.03559-.23644,1.46017-.52932.74049-1.65263,1.20007-3.27826,1.34123-.34359.0298-1.46519.0252-1.84943-.008-1.17089-.10007-2.22498-.29946-3.30884-.62589-.75261-.22666-1.60657-.55548-2.14268-.82503l-.12994-.0595c-.0064,0-.02698.0336-.04582.0747-.09921.21624-.3542.51696-.60996.71935-.43869.34712-1.10963.65749-1.88092.87011-.944.26022-1.98507.3883-3.16408.38926-.80773.00065-1.47774-.046-2.19622-.15295-.74464-.11083-1.60116-.3142-2.11841-.50297l-.11953-.0393 .05766.12894c.11909.25739.16376.4413.17562.72303 .0088.20794-.0045.33448-.05725.54463-.0283.11286-.02853.12236-.005.21539 .13024.51583.07153.96936-.18532,1.43148-.42602.76651-1.39623,1.42636-2.73359,1.85912-2.19398.70997-5.0648.69861-7.24196-.0286-.15523-.0519-.3658-.1288-.46793-.171-.34192-.14127-.27175-.13352-.57446-.0634-.89428.20718-1.6455.29038-2.62676.29095-.52137.00029-.81593-.0133-1.25523-.0581-1.15747-.11791-2.26638-.40459-3.20696-.82907l-.18401-.083-.12052.0724c-.75877.456-1.87522.89363-2.89837,1.13612-.89669.21251-1.6096.29589-2.48076.29015l-.51992-.003-.28967.13399c-1.71537.79345-3.67139,1.22882-5.37745,1.19693z"/>
 <path d="m59.627 105.65c1.2846-0.0208 3.8689-0.49934 3.1579-2.2999-1.34-2.0056-3.8393-2.7707-6.0761-3.2976-1.9385-0.34071-4.1094-0.57447-5.9054 0.39825-1.7176 1.3944 0.75407 3.1538 2.0355 3.7212 2.098 1.017 4.4542 1.5559 6.7881 1.478zm0 1.1884c1.0588 0.13747 3.3736-0.70906 3.1554-1.4301-2.2507 1.3555-5.0843 0.92184-7.5144 0.34455-1.7629-0.34368-4.0283-1.6846-4.9633-2.5293 1.2532 1.9854 3.7012 2.7467 5.8696 3.2882 1.132 0.24378 2.294 0.38131 3.4528 0.32656zm-38.467 3.8762c0.75499-0.21163 2.0133-0.37897 0.87631-1.1842-0.1585 0.35679-0.96758 1.0751-0.87631 1.1842zm15.776 0.17955c1.7818-0.18115 3.9038-0.50604 4.9699-2.1053 0.61759-2.0259-2.197-2.8179-3.7032-3.1043-2.5492-0.37597-5.4682-0.25172-7.5416 1.448-1.3929 1.2992 0.43688 2.8665 1.7476 3.1892 1.4434 0.52329 3.0025 0.65793 4.5273 0.57239zm0.0074 1.1883c1.7762-0.17566 3.8716-0.51308 4.9555-2.0829 0.21105-0.61123-1.3126 0.97866-1.9134 0.89849-2.9782 0.97169-6.4939 0.93213-9.2203-0.72927-1.3805-1.1714 0.45317 1.1956 1.1633 1.1469 1.5673 0.68864 3.3195 0.86048 5.0149 0.76682zm-17.458 0.11115c1.3311-0.14701 3.1674-0.55377 3.9959-1.3018-0.92202-0.67942-2.0926 0.69684-3.1804 0.54459-0.20381 0.11724-1.8606 1.05-0.81552 0.75719z" fill="#f0e000"/>
 <path d="m39.9443,105.44812c-.03831-.0894-.08524-.25246-.09772-.33961-.0083-.0579-.01481-.0696-.03441-.0619l-.64065.21581 .25996.0809c.14706.0441.32421.10009.39365.12441l.13688.0453c.0058.00061-.0021-.0286-.01771-.065z"/>
 <path d="m29.31435,103.02444c-.04585-.0727-.10958-.18393-.14162-.24724s-.06139-.11513-.06522-.11513-.02141.0284-.03908.0631c-.0347.0682-.19498.31405-.2325.35661-.01265.0143-.01959.0295-.01543.0336l.25863.0227 .28078.0189 .03376.002-.07931-.13428z"/>
 <path d="m37.27 101.76c1.5552-0.16169 4.6668-0.6057 4.271-2.7471-1.2651-1.6989-3.6875-1.8478-5.6466-1.8097-1.6495 0.15716-4.4625 0.46995-4.538 2.5618 0.91783 1.7062 3.1891 1.9168 4.9298 2.0213 0.3281 5e-3 0.65641-4e-3 0.98376-0.0262zm0 0.89129c1.4019 0.0381 3.8838-0.85089 4.1177-1.7028-2.4097 1.6747-5.6967 1.6824-8.4056 0.77692-0.59976-0.0407-2.3417-1.6707-1.0874-0.31143 1.5001 1.1482 3.5508 1.3298 5.3754 1.2373zm10.584 3.5531c0.93583-0.1254 3.3978-0.33992 3.2715-1.1527-1.8813-0.77954-0.86812-3.5454-3.2152-3.2286-1.7295-0.44498-3.4246 0.41451-5.1698 0.16636 0.26122 1.6748-3.3247 2.6237-0.64254 3.3773 1.8068 0.76537 3.8121 0.95126 5.756 0.83763zm0 1.1884c1.346-0.1431 3.8754-0.46879 4.0113-1.8272-2.7004 1.6386-6.1502 1.4477-9.0953 0.64435-0.85663-0.0143-3.2306-2.0852-1.8628-0.38624 1.9386 1.474 4.5979 1.6719 6.9468 1.5691zm-18.665 2.9464c1.3554-0.0266-0.50364-2.7056 0.87444-3.4574 0.33199-0.92439 2.8888-1.3494 2.5763-1.6724-1.4977-0.30301-2.5094-1.7751-4.1622-1.4056-1.3202 0.56792-2.5405 1.8097-4.0904 2.0885-2.0822-0.31578-2.3667 2.4542-0.64909 3.1586 1.6034 1.0185 3.5776 1.3476 5.4509 1.2882zm0.32681 1.1734c1.4589 0.29656 1.3327-0.77644 0.07737-0.5068-2.4898 0.13086-5.241-0.31798-7.1088-2.0994 1.391 2.2979 4.5906 2.6931 7.0314 2.6062zm-16.117 0.5872c3.1813-0.35698 6.6288-1.7738 8.2802-4.6706 1.1376-1.946-1.1022-3.5779-2.9027-3.4999-3.4738-0.15396-7.1678 1.248-9.3454 4.0214-1.6419 1.7213 0.00301 4.1609 2.1228 4.1082 0.61055 0.094 1.2308 0.0822 1.8451 0.0408zm-0.0028 1.1886c2.9637-0.30715 5.9957-1.574 7.8676-3.9661-2.7337 2.6411-6.8077 4.1126-10.579 3.3312-0.8066-0.14409-2.454-1.3666-1.0574-0.0972 1.0975 0.7346 2.4904 0.82381 3.7693 0.73203z" fill="#c0b020"/>
 <path d="m47.94782,101.15059-.07175-.12733c-.0059-.007-.09006.0299-.1871.0814-.12282.0652-.16742.0954-.14674.0995 .07974.0159.37704.0584.41903.0598l.04766.002-.0611-.11513z"/>
 <path d="m44.251 100.28c1.5983-0.18722 4.2893-0.52389 4.3407-2.5607-0.85855-1.6194-2.9869-1.8632-4.6349-2.0026-1.7363-0.05205-3.5998 0.16532-5.0429 1.2114 1.7609 0.27041 3.2316 1.4567 3.6794 3.1955 0.26995 0.38793 1.2054 0.0991 1.6577 0.15646zm0 1.1884c1.5877-0.19005 3.8678-0.46339 4.3864-2.2566-1.5604 1.4487-3.8575 1.679-5.8941 1.5953-0.387 1.1317 0.88746 0.55927 1.5077 0.66127zm5.2773 0.0545c0.11994-2.0103 2.648-2.3509 4.2346-2.3869 1.5855-0.02699 3.1629 0.2527 4.6789 0.70348-1.4-1.6958-3.8735-1.8108-5.9185-1.7226-1.2162 0.26855-3.4542 0.16603-3.542 1.791-0.94872 0.80104-0.53972 1.7053 0.54712 1.6149zm-30.553 1.5012c0.86581-0.17006 3.1574-2.6751 1.3571-1.1043-0.28723 0.49839-3.9987 1.7218-1.3571 1.1043zm-3.913 0.22679c2.3212-0.26511 4.9172-1.0818 6.2271-3.1517 0.64234-2.1785-2.6013-2.2722-4.036-2.0154-2.1487 0.36999-4.5771 1.1652-5.7192 3.1601-0.65749 1.9658 2.3103 2.1235 3.5281 2.007zm-1.4287 0.79354c1.6896-0.49014-1.8554-0.12637-2.0611-0.96543-0.02686 0.47784 1.3841 1.162 2.0611 0.96543zm23.028 0.0618c1.965-0.17014 4.5073-0.66373 5.3377-2.7087 0.19257-0.82895-1.24 1.4752-2.0351 1.2354-2.6509 0.86875-5.8325 0.87392-8.239-0.67602-1.3006-0.52256-0.76533-2.7305-0.91355-3.127-1.8679 0.92335-1.324 3.4584 0.42796 4.1513 1.6327 0.92703 3.5673 1.211 5.422 1.1251zm-14.02 0.71241c2.332-0.47111 4.9922-1.4282 6.1059-3.7 0.43073-2.2043-2.5762-2.4102-4.1282-2.1968-1.3188 0.19426-3.2728 0.20339-2.7594 2.0578 0.01305 1.4131-3.7044 2.3484-1.0639 2.6669 0.80407 0.067 1.1446 1.2618 1.8456 1.1721zm12.631 0.10321c1.5428 0.0389 3.1269 0.0724 4.5576-0.62305 0.79547-0.29863 2.1059-1.3474 0.65214-0.43759-3.169 1.428-7.1573 1.2983-10.097-0.61827 1.3128 1.135 3.1695 1.7075 4.8872 1.6789zm-12.058 0.67673c1.8605-0.44141 3.7478-1.2379 5.0245-2.7116-1.5664 1.3964-3.5899 2.1977-5.6413 2.5477-0.01569 0.48033 0.35219 0.15028 0.61682 0.16396z" fill="#ffd040"/>
</svg>
