<?xml version="1.0" encoding="utf-8"?>
<!-- Generator: Adobe Illustrator 21.1.0, SVG Export Plug-In . SVG Version: 6.00 Build 0)  -->
<svg version="1.1" xmlns="http://www.w3.org/2000/svg" xmlns:xlink="http://www.w3.org/1999/xlink" x="0px" y="0px"
	 viewBox="0 0 746.5 1150" style="enable-background:new 0 0 746.5 1150;" xml:space="preserve">
<style type="text/css">
	.st0{clip-path:url(#SVGID_6_);}
	.st1{fill:#F0E000;}
	.st2{fill:#C0B020;}
	.st3{fill:#FFD040;}
	.st4{clip-path:url(#SVGID_7_);}
	.st5{clip-path:url(#SVGID_8_);}
	.st6{clip-path:url(#SVGID_9_);}
	.st7{opacity:0.5;fill:none;stroke:url(#SVGID_10_);enable-background:new    ;}
	.st8{opacity:0.8;clip-path:url(#SVGID_12_);filter:url(#m);enable-background:new    ;}
	.st9{opacity:0.1882;}
	.st10{fill-opacity:3.920000e-02;}
	.st11{clip-path:url(#SVGID_14_);filter:url(#n);}
	.st12{opacity:9.410000e-02;}
	.st13{opacity:0.3;fill:none;stroke:#000000;enable-background:new    ;}
	.st14{fill-opacity:0.3216;}
	.st15{opacity:0.5;clip-path:url(#SVGID_16_);filter:url(#o);enable-background:new    ;}
	.st16{fill:url(#SVGID_17_);}
	.st17{opacity:0.4;clip-path:url(#SVGID_19_);enable-background:new    ;}
	.st18{opacity:0.24;clip-path:url(#SVGID_21_);filter:url(#l);enable-background:new    ;}
	.st19{opacity:0.75;clip-path:url(#SVGID_23_);filter:url(#q);enable-background:new    ;}
	.st20{opacity:0.25;clip-path:url(#SVGID_25_);filter:url(#p);enable-background:new    ;}
	.st21{opacity:0.5;clip-path:url(#SVGID_27_);filter:url(#d);enable-background:new    ;}
	.st22{fill:none;stroke:#000000;stroke-width:10;}
	.st23{opacity:0.5;clip-path:url(#SVGID_29_);filter:url(#d);enable-background:new    ;}
	.st24{opacity:0.359;enable-background:new    ;}
	.st25{clip-path:url(#SVGID_31_);}
	.st26{clip-path:url(#SVGID_33_);fill:url(#SVGID_34_);filter:url(#Adobe_OpacityMaskFilter);}
	.st27{opacity:0.75;clip-path:url(#SVGID_33_);mask:url(#h);enable-background:new    ;}
	.st28{clip-path:url(#SVGID_36_);}
	.st29{display:none;}
	.st30{display:inline;fill:none;}
</style>
<filter  height="2.2337" id="q" width="1.0371" x="-.01854" y="-.61687">
	<feGaussianBlur  stdDeviation="4.6908"></feGaussianBlur>
</filter>
<filter  height="2.5158" id="p" width="1.0369" x="-.01844" y="-.75789">
	<feGaussianBlur  stdDeviation="4.3612"></feGaussianBlur>
</filter>
<filter  id="o">
	<feGaussianBlur  stdDeviation="5.13"></feGaussianBlur>
</filter>
<filter  height="1.2664" id="n" width="1.0264" x="-.01319" y="-.13322">
	<feGaussianBlur  stdDeviation="3.4917"></feGaussianBlur>
</filter>
<filter  height="1.6463" id="m" width="1.0966" x="-.04827" y="-.32317">
	<feGaussianBlur  stdDeviation="13.5959"></feGaussianBlur>
</filter>
<filter  height="1.6763" id="l" width="2.6535" x="-.82673" y="-.33817">
	<feGaussianBlur  stdDeviation="146.4"></feGaussianBlur>
</filter>
<filter  height="1.4331" id="d" width="3.1324" x="-1.0662" y="-.21656">
	<feGaussianBlur  stdDeviation="9.4125"></feGaussianBlur>
</filter>
<g id="Layer_2">
	<g>
		<defs>
			<path id="SVGID_3_" d="M348,104.8v1.3l-259,7c0,0,13,44,8,59C92,187,0,275.2,0,365.5v566c0,0,15.8,75.3,29.5,106.5
				s32.5,88.8,113.8,98.8c75.8,4.2,79.5,12.8,228.8,12.8s154.3-4,228.8-12.8c81.3-10,100-67.5,113.8-98.8
				c13.8-31.2,29.5-106.4,29.5-106.4v-566c0-90.3-92-178.5-97-193.5s8-59,8-59l-259-7v-1.3l-24,0.7L348,104.8z"/>
		</defs>
		<clipPath id="SVGID_6_">
			<use xlink:href="#SVGID_3_"  style="overflow:visible;"/>
		</clipPath>
		<g class="st0">
			<path d="M102.3,1223.9c-32.1-0.6-54.9-13.6-60-34.1l-0.6-2.4l0.1-7.1c0.1-8.4,0.1-6.5,0-15c-0.1-5.8,0-7.2,0.2-8.6
				c0.9-4.4,2.7-9.7,4.8-13.8c9.2-18.2,29-36.2,54.3-49.1l3.8-2l-2.3-0.8c-9.6-3.2-16.2-8.3-19.4-14.9c-1.5-3.1-2.1-5.5-2.1-9.1
				c0-2.1,0.1-3.5,0.4-4.7c0.4-1.7,0.4-1.8,0-3.4c-0.5-2.1-0.5-6.7,0-9c1.7-7.9,7-16,15.2-23.3c18.7-16.5,48.2-28.2,78.1-31
				c5.2-0.5,16.3-0.5,21,0c8.7,0.9,15.6,2.7,21.6,5.6c6.9,3.4,11.8,7.8,14.2,13.1l0.6,1.3l2-0.7c5.6-2,14.5-4.3,21.1-5.7
				c25.4-5.1,48.7-3.5,63.8,4.2c5.5,2.8,9.8,6.4,12.7,10.5l0.8,1.2l0.8-1.4c1.9-3.5,4.6-7,8-10.3c2.7-2.7,3.6-3.4,6.6-5.7
				c10.3-7.7,24.5-13.6,41.1-17.2l5.2-1.3c8.1-2.3,18.1-4,27.9-4.7c4.7-0.4,18-0.4,22.6,0l8.5,0.9l5,0.6l1.3-1.3
				c11.6-11.2,32.5-18.6,58.6-20.6c4.4-0.3,18-0.3,22.6,0c34.4,2.6,60.5,15.2,66,31.8c0.9,2.7,1.1,4.6,1,7.7c-0.1,2.5-0.3,3.4-1.1,6
				c-0.1,0.4,0.2,0.3,2.1-0.8c4.5-2.5,11.8-5.3,18.1-7.1c8.4-2.4,18.3-4.1,28.6-4.9c4.4-0.3,18.3-0.3,22.7,0
				c25.6,2,46.8,9.4,58.2,20.3c4.1,3.9,7.2,8.7,8.1,12.8c0.2,0.9,0.3,1,1.2,1.4c25.9,9.5,46.1,23.1,55.2,36.9
				c1.6,2.5,3.3,5.7,4.1,8.1c1.7,5.1,1.9,10.2,0.5,14.9l-0.5,1.6l0.4,1.4c2,7.4,0.9,14.3-3.3,20.1c-7.3,10.2-22.8,16.5-45.1,18.5
				c-4.7,0.4-20.2,0.3-25.5-0.1c-16.1-1.4-30.6-4.1-45.6-8.6c-10.4-3.1-22.1-7.7-29.5-11.4l-1.8-0.8c-0.1,0-0.4,0.5-0.6,1
				c-1.4,3-4.9,7.1-8.4,9.9c-6,4.8-15.3,9.1-25.9,12c-13,3.6-27.3,5.3-43.6,5.4c-11.1,0-20.4-0.6-30.2-2.1
				c-10.3-1.5-22.1-4.3-29.2-6.9l-1.6-0.5l0.8,1.8c1.6,3.5,2.3,6.1,2.4,10c0.1,2.9-0.1,4.6-0.8,7.5c-0.4,1.6-0.4,1.7-0.1,3
				c1.8,7.1,1,13.4-2.6,19.7c-5.9,10.6-19.2,19.6-37.6,25.6c-30.2,9.8-69.8,9.6-99.7-0.4c-2.1-0.7-5-1.8-6.4-2.4
				c-4.7-1.9-3.7-1.8-7.9-0.9c-12.3,2.9-22.7,4-36.2,4c-7.2,0-11.2-0.2-17.3-0.8c-15.9-1.6-31.2-5.6-44.2-11.4l-2.5-1.1l-1.7,1
				c-10.5,6.3-25.8,12.3-39.9,15.6c-12.3,2.9-22.2,4.1-34.2,4l-7.2,0l-4,1.8C152.7,1218.3,125.8,1224.3,102.3,1223.9L102.3,1223.9z"
				/>
			<path class="st1" d="M752.3,1107.9c17.7-0.3,53.3-6.9,43.5-31.7c-18.5-27.6-52.9-38.2-83.7-45.4c-26.7-4.7-56.6-7.9-81.3,5.5
				c-23.7,19.2,10.4,43.4,28,51.2C687.7,1101.5,720.1,1108.9,752.3,1107.9L752.3,1107.9z M752.3,1124.2c14.6,1.9,46.5-9.8,43.5-19.7
				c-31,18.7-70,12.7-103.5,4.7c-24.3-4.7-55.5-23.2-68.4-34.8c17.3,27.3,51,37.8,80.8,45.3C720.3,1123.1,736.3,1125,752.3,1124.2
				L752.3,1124.2z M222.5,1177.6c10.4-2.9,27.7-5.2,12.1-16.3C232.4,1166.2,221.2,1176.1,222.5,1177.6z M439.8,1180.1
				c24.5-2.5,53.8-7,68.4-29c8.5-27.9-30.3-38.8-51-42.8c-35.1-5.2-75.3-3.5-103.9,19.9c-19.2,17.9,6,39.5,24.1,43.9
				C397.3,1179.4,418.8,1181.3,439.8,1180.1L439.8,1180.1z M439.9,1196.5c24.5-2.4,53.3-7.1,68.2-28.7c2.9-8.4-18.1,13.5-26.4,12.4
				c-41,13.4-89.4,12.8-127-10c-19-16.1,6.2,16.5,16,15.8C392.4,1195.4,416.5,1197.7,439.9,1196.5L439.9,1196.5z M199.4,1198
				c18.3-2,43.6-7.6,55-17.9c-12.7-9.4-28.8,9.6-43.8,7.5C207.9,1189.2,185,1202,199.4,1198L199.4,1198z"/>
			<path d="M481.2,1105.1c-0.5-1.2-1.2-3.5-1.3-4.7c-0.1-0.8-0.2-1-0.5-0.9l-8.8,3l3.6,1.1c2,0.6,4.5,1.4,5.4,1.7l1.9,0.6
				C481.5,1106,481.4,1105.6,481.2,1105.1L481.2,1105.1z"/>
			<path d="M334.8,1071.7c-0.6-1-1.5-2.5-2-3.4s-0.8-1.6-0.9-1.6c-0.1,0-0.3,0.4-0.5,0.9c-0.5,0.9-2.7,4.3-3.2,4.9
				c-0.2,0.2-0.3,0.4-0.2,0.5l3.6,0.3l3.9,0.3l0.5,0L334.8,1071.7L334.8,1071.7z"/>
			<path class="st2" d="M444.4,1054.3c21.4-2.2,64.3-8.3,58.8-37.8c-17.4-23.4-50.8-25.4-77.8-24.9c-22.7,2.2-61.5,6.5-62.5,35.3
				c12.6,23.5,43.9,26.4,67.9,27.8C435.3,1054.7,439.9,1054.6,444.4,1054.3L444.4,1054.3z M444.4,1066.6
				c19.3,0.5,53.5-11.7,56.7-23.5c-33.2,23.1-78.5,23.2-115.8,10.7c-8.3-0.6-32.3-23-15-4.3C391,1065.3,419.2,1067.8,444.4,1066.6
				L444.4,1066.6z M590.1,1115.5c12.9-1.7,46.8-4.7,45.1-15.9c-25.9-10.7-12-48.8-44.3-44.5c-23.8-6.1-47.2,5.7-71.2,2.3
				c3.6,23.1-45.8,36.1-8.8,46.5C535.7,1114.5,563.4,1117.1,590.1,1115.5L590.1,1115.5z M590.1,1131.9c18.5-2,53.4-6.5,55.2-25.2
				c-37.2,22.6-84.7,19.9-125.3,8.9c-11.8-0.2-44.5-28.7-25.7-5.3C521.2,1130.6,557.8,1133.3,590.1,1131.9z M333.1,1172.4
				c18.7-0.4-6.9-37.3,12-47.6c4.6-12.7,39.8-18.6,35.5-23c-20.6-4.2-34.6-24.4-57.3-19.4c-18.2,7.8-35,24.9-56.3,28.8
				c-28.7-4.3-32.6,33.8-8.9,43.5C280.1,1168.7,307.3,1173.3,333.1,1172.4L333.1,1172.4z M337.6,1188.6c20.1,4.1,18.4-10.7,1.1-7
				c-34.3,1.8-72.2-4.4-97.9-28.9C259.9,1184.4,304,1189.8,337.6,1188.6L337.6,1188.6z M115.6,1196.7c43.8-4.9,91.3-24.4,114-64.3
				c15.7-26.8-15.2-49.3-40-48.2c-47.8-2.1-98.7,17.2-128.7,55.4c-22.6,23.7,0,57.3,29.2,56.6
				C98.6,1197.4,107.1,1197.3,115.6,1196.7L115.6,1196.7z M115.6,1213.1c40.8-4.2,82.6-21.7,108.4-54.6
				c-37.6,36.4-93.8,56.6-145.7,45.9c-11.1-2-33.8-18.8-14.6-1.3C78.8,1213.1,98,1214.3,115.6,1213.1L115.6,1213.1z"/>
			<path d="M591.4,1045.9l-1-1.8c-0.1-0.1-1.2,0.4-2.6,1.1c-1.7,0.9-2.3,1.3-2,1.4c1.1,0.2,5.2,0.8,5.8,0.8l0.7,0L591.4,1045.9
				L591.4,1045.9z"/>
			<path class="st3" d="M540.5,1033.9c22-2.6,59.1-7.2,59.8-35.3c-11.8-22.3-41.1-25.7-63.8-27.6c-23.9-0.7-49.6,2.3-69.5,16.7
				c24.3,3.7,44.5,20.1,50.7,44C521.4,1037.1,534.3,1033.1,540.5,1033.9L540.5,1033.9z M540.5,1050.3c21.9-2.6,53.3-6.4,60.4-31.1
				c-21.5,20-53.1,23.1-81.2,22C514.4,1056.8,532,1048.9,540.5,1050.3L540.5,1050.3z M613.2,1051c1.7-27.7,36.5-32.4,58.3-32.9
				c21.8-0.4,43.6,3.5,64.4,9.7c-19.3-23.4-53.3-24.9-81.5-23.7c-16.8,3.7-47.6,2.3-48.8,24.7C592.6,1039.8,598.2,1052.3,613.2,1051
				L613.2,1051z M192.4,1071.7c11.9-2.3,43.5-36.8,18.7-15.2C207.1,1063.4,156,1080.2,192.4,1071.7z M138.5,1074.8
				c32-3.7,67.7-14.9,85.8-43.4c8.8-30-35.8-31.3-55.6-27.8c-29.6,5.1-63,16-78.8,43.5C80.9,1074.3,121.7,1076.4,138.5,1074.8z
				 M118.8,1085.8c23.3-6.8-25.6-1.7-28.4-13.3C90.1,1079,109.5,1088.5,118.8,1085.8z M436,1086.6c27.1-2.3,62.1-9.1,73.5-37.3
				c2.7-11.4-17.1,20.3-28,17c-36.5,12-80.3,12-113.5-9.3c-17.9-7.2-10.5-37.6-12.6-43.1c-25.7,12.7-18.2,47.6,5.9,57.2
				C383.8,1083.9,410.4,1087.8,436,1086.6L436,1086.6z M242.9,1096.4c32.1-6.5,68.8-19.7,84.1-51c5.9-30.4-35.5-33.2-56.9-30.3
				c-18.2,2.7-45.1,2.8-38,28.3c0.2,19.5-51,32.3-14.7,36.7C228.6,1081.2,233.2,1097.6,242.9,1096.4z M416.9,1097.8
				c21.2,0.5,43.1,1,62.8-8.6c11-4.1,29-18.6,9-6c-43.6,19.7-98.6,17.9-139.1-8.5C367.6,1090.3,393.2,1098.2,416.9,1097.8
				L416.9,1097.8z M250.8,1107.2c25.6-6.1,51.6-17,69.2-37.3c-21.6,19.2-49.4,30.3-77.7,35.1C242.1,1111.5,247.1,1107,250.8,1107.2
				L250.8,1107.2z"/>
		</g>
		<g class="st0">
			<path d="M56.3,1100.9c-32.1-0.6-54.9-13.6-60-34.1l-0.6-2.4l0.1-7.1c0.1-8.4,0.1-6.5,0-15c-0.1-5.8,0-7.2,0.2-8.6
				c0.9-4.4,2.7-9.7,4.8-13.8c9.2-18.2,29-36.2,54.3-49.1l3.8-2l-2.3-0.8c-9.6-3.2-16.2-8.3-19.4-14.9c-1.5-3.1-2.1-5.5-2.1-9.1
				c0-2.1,0.1-3.5,0.4-4.7c0.4-1.7,0.4-1.8,0-3.4c-0.5-2.1-0.5-6.7,0-9c1.7-7.9,7-16,15.2-23.3c18.7-16.5,48.2-28.2,78.1-31
				c5.2-0.5,16.3-0.5,21,0c8.7,0.9,15.6,2.7,21.6,5.6c6.9,3.4,11.8,7.8,14.2,13.1l0.6,1.3l2-0.7c5.6-2,14.5-4.3,21.1-5.7
				c25.4-5.1,48.7-3.5,63.8,4.2c5.5,2.8,9.8,6.4,12.7,10.5l0.8,1.2l0.8-1.4c1.9-3.5,4.6-7,8-10.3c2.7-2.7,3.6-3.4,6.6-5.7
				c10.3-7.7,24.5-13.6,41.1-17.2l5.2-1.3c8.1-2.3,18.1-4,27.9-4.7c4.7-0.4,18-0.4,22.6,0l8.5,0.9l5,0.6l1.3-1.3
				c11.6-11.2,32.5-18.6,58.6-20.6c4.4-0.3,18-0.3,22.6,0c34.4,2.6,60.5,15.2,66,31.8c0.9,2.7,1.1,4.6,1,7.7c-0.1,2.5-0.3,3.4-1.1,6
				c-0.1,0.4,0.2,0.3,2.1-0.8c4.5-2.5,11.8-5.3,18.1-7.1c8.4-2.4,18.3-4.1,28.6-4.9c4.4-0.3,18.3-0.3,22.7,0
				c25.6,2,46.8,9.4,58.2,20.3c4.1,3.9,7.2,8.7,8.1,12.8c0.2,0.9,0.3,1,1.2,1.4c25.9,9.5,46.1,23.1,55.2,36.9
				c1.6,2.5,3.3,5.7,4.1,8.1c1.7,5.1,1.9,10.2,0.5,14.9l-0.5,1.6l0.4,1.4c2,7.4,0.9,14.3-3.3,20.1c-7.3,10.2-22.8,16.5-45.1,18.5
				c-4.7,0.4-20.2,0.3-25.5-0.1c-16.1-1.4-30.6-4.1-45.6-8.6c-10.4-3.1-22.1-7.7-29.5-11.4l-1.8-0.8c-0.1,0-0.4,0.5-0.6,1
				c-1.4,3-4.9,7.1-8.4,9.9c-6,4.8-15.3,9.1-25.9,12c-13,3.6-27.3,5.3-43.6,5.4c-11.1,0-20.4-0.6-30.2-2.1
				c-10.3-1.5-22.1-4.3-29.2-6.9l-1.6-0.5l0.8,1.8c1.6,3.5,2.3,6.1,2.4,10c0.1,2.9-0.1,4.6-0.8,7.5c-0.4,1.6-0.4,1.7-0.1,3
				c1.8,7.1,1,13.4-2.6,19.7c-5.9,10.6-19.2,19.6-37.6,25.6c-30.2,9.8-69.8,9.6-99.7-0.4c-2.1-0.7-5-1.8-6.4-2.4
				c-4.7-1.9-3.7-1.8-7.9-0.9c-12.3,2.9-22.7,4-36.2,4c-7.2,0-11.2-0.2-17.3-0.8c-15.9-1.6-31.2-5.6-44.2-11.4l-2.5-1.1l-1.7,1
				c-10.5,6.3-25.8,12.3-39.9,15.6c-12.3,2.9-22.2,4.1-34.2,4l-7.2,0l-4,1.8C106.7,1095.3,79.8,1101.3,56.3,1100.9L56.3,1100.9z"/>
			<path class="st1" d="M706.3,984.9c17.7-0.3,53.3-6.9,43.5-31.7c-18.5-27.6-52.9-38.2-83.7-45.4c-26.7-4.7-56.6-7.9-81.3,5.5
				c-23.7,19.2,10.4,43.4,28,51.2C641.7,978.5,674.1,985.9,706.3,984.9L706.3,984.9z M706.3,1001.2c14.6,1.9,46.5-9.8,43.5-19.7
				c-31,18.7-70,12.7-103.5,4.7c-24.3-4.7-55.5-23.2-68.4-34.8c17.3,27.3,51,37.8,80.8,45.3C674.3,1000.1,690.3,1002,706.3,1001.2
				L706.3,1001.2z M176.5,1054.6c10.4-2.9,27.7-5.2,12.1-16.3C186.4,1043.2,175.2,1053.1,176.5,1054.6z M393.8,1057.1
				c24.5-2.5,53.8-7,68.4-29c8.5-27.9-30.3-38.8-51-42.8c-35.1-5.2-75.3-3.5-103.9,19.9c-19.2,17.9,6,39.5,24.1,43.9
				C351.3,1056.4,372.8,1058.3,393.8,1057.1L393.8,1057.1z M393.9,1073.5c24.5-2.4,53.3-7.1,68.2-28.7c2.9-8.4-18.1,13.5-26.4,12.4
				c-41,13.4-89.4,12.8-127-10c-19-16.1,6.2,16.5,16,15.8C346.4,1072.4,370.5,1074.7,393.9,1073.5L393.9,1073.5z M153.4,1075
				c18.3-2,43.6-7.6,55-17.9c-12.7-9.4-28.8,9.6-43.8,7.5C161.9,1066.2,139,1079,153.4,1075L153.4,1075z"/>
			<path d="M435.2,982.1c-0.5-1.2-1.2-3.5-1.3-4.7c-0.1-0.8-0.2-1-0.5-0.9l-8.8,3l3.6,1.1c2,0.6,4.5,1.4,5.4,1.7l1.9,0.6
				C435.5,983,435.4,982.6,435.2,982.1L435.2,982.1z"/>
			<path d="M288.8,948.7c-0.6-1-1.5-2.5-2-3.4c-0.4-0.9-0.8-1.6-0.9-1.6c-0.1,0-0.3,0.4-0.5,0.9c-0.5,0.9-2.7,4.3-3.2,4.9
				c-0.2,0.2-0.3,0.4-0.2,0.5l3.6,0.3l3.9,0.3l0.5,0L288.8,948.7L288.8,948.7z"/>
			<path class="st2" d="M398.4,931.3c21.4-2.2,64.3-8.3,58.8-37.8c-17.4-23.4-50.8-25.4-77.8-24.9c-22.7,2.2-61.5,6.5-62.5,35.3
				c12.6,23.5,43.9,26.4,67.9,27.8C389.3,931.7,393.9,931.6,398.4,931.3L398.4,931.3z M398.4,943.6c19.3,0.5,53.5-11.7,56.7-23.5
				c-33.2,23.1-78.5,23.2-115.8,10.7c-8.3-0.6-32.3-23-15-4.3C345,942.3,373.2,944.8,398.4,943.6L398.4,943.6z M544.1,992.5
				c12.9-1.7,46.8-4.7,45.1-15.9c-25.9-10.7-12-48.8-44.3-44.5c-23.8-6.1-47.2,5.7-71.2,2.3c3.6,23.1-45.8,36.1-8.8,46.5
				C489.7,991.5,517.4,994.1,544.1,992.5L544.1,992.5z M544.1,1008.9c18.5-2,53.4-6.5,55.2-25.2c-37.2,22.6-84.7,19.9-125.3,8.9
				c-11.8-0.2-44.5-28.7-25.7-5.3C475.2,1007.6,511.8,1010.3,544.1,1008.9z M287.1,1049.4c18.7-0.4-6.9-37.3,12-47.6
				c4.6-12.7,39.8-18.6,35.5-23c-20.6-4.2-34.6-24.4-57.3-19.4c-18.2,7.8-35,24.9-56.3,28.8c-28.7-4.3-32.6,33.8-8.9,43.5
				C234.1,1045.7,261.3,1050.3,287.1,1049.4L287.1,1049.4z M291.6,1065.6c20.1,4.1,18.4-10.7,1.1-7c-34.3,1.8-72.2-4.4-97.9-28.9
				C213.9,1061.4,258,1066.8,291.6,1065.6L291.6,1065.6z M69.6,1073.7c43.8-4.9,91.3-24.4,114-64.3c15.7-26.8-15.2-49.3-40-48.2
				C95.8,959,44.9,978.4,15,1016.5c-22.6,23.7,0,57.3,29.2,56.6C52.6,1074.4,61.1,1074.3,69.6,1073.7L69.6,1073.7z M69.6,1090.1
				c40.8-4.2,82.6-21.7,108.4-54.6c-37.6,36.4-93.8,56.6-145.7,45.9c-11.1-2-33.8-18.8-14.6-1.3C32.8,1090.1,52,1091.3,69.6,1090.1
				L69.6,1090.1z"/>
			<path d="M545.4,922.9l-1-1.8c-0.1-0.1-1.2,0.4-2.6,1.1c-1.7,0.9-2.3,1.3-2,1.4c1.1,0.2,5.2,0.8,5.8,0.8l0.7,0L545.4,922.9
				L545.4,922.9z"/>
			<path class="st3" d="M494.5,910.9c22-2.6,59.1-7.2,59.8-35.3c-11.8-22.3-41.1-25.7-63.8-27.6c-23.9-0.7-49.6,2.3-69.5,16.7
				c24.3,3.7,44.5,20.1,50.7,44C475.4,914.1,488.3,910.1,494.5,910.9L494.5,910.9z M494.5,927.3c21.9-2.6,53.3-6.4,60.4-31.1
				c-21.5,20-53.1,23.1-81.2,22C468.4,933.8,486,925.9,494.5,927.3L494.5,927.3z M567.2,928c1.7-27.7,36.5-32.4,58.3-32.9
				c21.8-0.4,43.6,3.5,64.4,9.7c-19.3-23.4-53.3-24.9-81.5-23.7c-16.8,3.7-47.6,2.3-48.8,24.7C546.6,916.8,552.2,929.3,567.2,928
				L567.2,928z M146.4,948.7c11.9-2.3,43.5-36.8,18.7-15.2C161.1,940.4,110,957.2,146.4,948.7z M92.5,951.8
				c32-3.7,67.7-14.9,85.8-43.4c8.8-30-35.8-31.3-55.6-27.8c-29.6,5.1-63,16-78.8,43.5C34.9,951.3,75.7,953.4,92.5,951.8z
				 M72.8,962.8c23.3-6.8-25.6-1.7-28.4-13.3C44.1,956,63.5,965.5,72.8,962.8z M390,963.6c27.1-2.3,62.1-9.1,73.5-37.3
				c2.7-11.4-17.1,20.3-28,17c-36.5,12-80.3,12-113.5-9.3c-17.9-7.2-10.5-37.6-12.6-43.1c-25.7,12.7-18.2,47.6,5.9,57.2
				C337.8,960.9,364.4,964.8,390,963.6L390,963.6z M196.9,973.4c32.1-6.5,68.8-19.7,84.1-51c5.9-30.4-35.5-33.2-56.9-30.3
				c-18.2,2.7-45.1,2.8-38,28.3c0.2,19.5-51,32.3-14.7,36.7C182.6,958.2,187.2,974.6,196.9,973.4z M370.9,974.8
				c21.2,0.5,43.1,1,62.8-8.6c11-4.1,29-18.6,9-6c-43.6,19.7-98.6,17.9-139.1-8.5C321.6,967.3,347.2,975.2,370.9,974.8L370.9,974.8z
				 M204.8,984.2c25.6-6.1,51.6-17,69.2-37.3c-21.6,19.2-49.4,30.3-77.7,35.1C196.1,988.5,201.1,984,204.8,984.2L204.8,984.2z"/>
		</g>
	</g>
</g>
<g id="Layer_3">
	<g>
		<defs>
			<path id="SVGID_2_" d="M348,104.8v1.3l-259,7c0,0,13,44,8,59C92,187,0,275.2,0,365.5v566c0,0,15.8,75.3,29.5,106.5
				s32.5,88.8,113.8,98.8c75.8,4.2,79.5,12.8,228.8,12.8s154.3-4,228.8-12.8c81.3-10,100-67.5,113.8-98.8
				c13.8-31.2,29.5-106.4,29.5-106.4v-566c0-90.3-92-178.5-97-193.5s8-59,8-59l-259-7v-1.3l-24,0.7L348,104.8z"/>
		</defs>
		<clipPath id="SVGID_7_">
			<use xlink:href="#SVGID_2_"  style="overflow:visible;"/>
		</clipPath>
		<g class="st4">
			<path d="M695.8,934c-23.1,4.5-50.6,3.3-75.8-3.4l-4.2-1.1l-7,1.3c-11.8,2.2-21.7,2.7-34.3,2c-14.5-0.8-30.6-4.1-42-8.5l-1.8-0.7
				l-2.3,1.6c-11.7,8-26.1,14.5-41.5,18.9c-5.9,1.7-9.8,2.5-16.9,3.8c-13.3,2.3-23.7,3-36.3,2.3c-4.3-0.2-3.3-0.5-7.6,2.2
				c-1.3,0.8-4,2.4-5.9,3.4c-27.8,15.1-66.7,22.1-98.2,17.7c-19.2-2.7-33.9-9.3-41.5-18.7c-4.6-5.7-6.5-11.7-5.9-19
				c0.1-1.3,0.1-1.4-0.6-2.9c-1.2-2.7-1.7-4.4-2.1-7.3c-0.5-3.8-0.3-6.5,0.7-10.2l0.5-1.9l-1.5,0.8c-6.6,3.8-17.7,8.6-27.5,11.9
				c-9.5,3.2-18.5,5.4-29.4,7.3c-16,2.8-30.4,3.6-43.8,2.3c-11-1-20.8-3.6-27.6-7.3c-4-2.1-8.1-5.6-10-8.3c-0.4-0.5-0.7-0.9-0.8-0.9
				l-1.6,1.1c-6.6,4.9-17.4,11.4-27.1,16.3c-13.9,7-27.7,12.2-43.4,16.4c-5.1,1.4-20.3,4.1-25.1,4.5c-22.4,2-38.7-1.6-47.7-10.4
				c-5.1-5-7.4-11.6-6.7-19.2l0.1-1.5l-0.7-1.5c-2.2-4.3-2.9-9.4-2-14.7c0.4-2.5,1.4-5.9,2.6-8.7c6.6-15.2,24.2-32.1,48-45.9
				c0.8-0.5,0.9-0.6,0.9-1.5c0.2-4.2,2.4-9.5,5.7-14c9.4-12.8,28.9-23.7,53.8-30.1c4.3-1.1,18-3.5,22.4-3.9c10.3-1,20.3-1,29-0.1
				c6.5,0.7,14.2,2.3,19,3.9c2.1,0.7,2.4,0.8,2.2,0.4c-1.3-2.5-1.6-3.3-2.1-5.8c-0.7-3.1-0.8-5-0.3-7.8
				c2.6-17.4,26.1-34.3,59.5-42.8c4.5-1.1,17.9-3.5,22.3-3.9c26.1-2.5,48,1.1,61.3,10.1l1.6,1.1l4.8-1.5l8.2-2.3
				c4.4-1.1,17.6-3.5,22.3-3.9c9.8-1,19.9-1,28.3-0.2l5.4,0.3c17,0.6,32,4,43.5,9.8c3.4,1.7,4.4,2.3,7.5,4.5
				c3.9,2.7,7.2,5.7,9.7,8.8l1,1.2l0.6-1.3c2.1-4.5,5.8-8.8,10.7-12.5c13.5-10.2,36.2-15.8,62.1-15.2c6.8,0.1,16,1,21.8,1.9l2.1,0.3
				l0.4-1.4c1.4-5.6,5.4-10.8,11.7-15.3c5.4-3.9,11.8-6.8,20.3-9.2c4.6-1.3,15.5-3.2,20.7-3.7c30-2.4,61.1,4,82.3,17
				c9.4,5.7,16,12.8,19,20.3c0.9,2.2,1.7,6.7,1.6,8.8c-0.1,1.6-0.1,1.7,0.6,3.3c0.5,1.2,0.8,2.5,1.2,4.6c0.6,3.6,0.5,6-0.5,9.3
				c-2,7.1-7.7,13.3-16.5,18.1l-2.1,1.2l4.1,1.3c27.1,8.4,49.8,22.6,62,38.9c2.8,3.8,5.5,8.6,7.1,12.8c0.5,1.3,0.8,2.7,1.7,8.4
				c1.4,8.4,1,6.6,2.6,14.8l1.3,7L749,890C747.5,911.1,727.3,927.9,695.8,934L695.8,934z"/>
			<path class="st1" d="M35.5,932.6c31.8-4.5,62.5-17.5,88.5-36.3c16-10.8,45.3-40.5,18.7-55.3c-26.7-8.9-55.6-0.5-81,8.7
				C32.7,862.2,0.6,878.6-12.8,909C-18.1,935.1,18.1,935.4,35.5,932.6L35.5,932.6z M38.4,948.7c15.8-2,31.3-6.7,46.1-12.7
				c28.1-12.5,59.5-28.7,71.7-58.6c-10.7,13.7-38.2,37.3-61.3,46.2c-31.6,13.6-69,26.3-102.7,13.3C-9.1,947.2,24.4,953.1,38.4,948.7
				L38.4,948.7z M554.7,895.3c-13.5,13.6,4,12.9,14.7,14C570.4,907.6,557.7,899.8,554.7,895.3z M355.8,949.5
				c20.9-2.5,41.7-8,60-18.6c17-7.5,38.1-33.1,16.1-47.4c-32.2-18.1-72.1-12.8-105.8-1.6c-19.7,7.5-56,25-42.8,51
				C301.7,952,331.2,951.3,355.8,949.5L355.8,949.5z M358.6,965.6c23.2-2.8,46.6-9.3,66.2-22.4c9.7-1,29-37.5,13-18.3
				c-33,29.1-80.6,38-123.3,31.9c-8,2.5-32.4-15.4-28.1-7.6C304.9,967.9,334.1,967.5,358.6,965.6L358.6,965.6z M595.6,925.4
				c14.9,1.5-9.8-7.2-12.9-8.3c-14.4,4.7-33.6-11.2-44.4,0.2C551.4,925.4,577.2,926.6,595.6,925.4L595.6,925.4z"/>
			<path d="M302,882.8c-0.1,0.5-0.2,0.9-0.1,0.9l1.7-0.9c0.9-0.5,3.2-1.7,5-2.6l3.3-1.7l-9.2-1.4c-0.3-0.1-0.3,0.1-0.3,0.9
				C302.6,879.2,302.3,881.5,302,882.8L302,882.8z"/>
			<path d="M440.4,824.5l-0.8,2l0.5-0.1l3.8-0.9l3.5-0.9c0-0.1-0.1-0.3-0.3-0.4c-0.6-0.5-3.4-3.4-4-4.3c-0.3-0.4-0.6-0.8-0.7-0.8
				c-0.1,0-0.3,0.8-0.6,1.7C441.4,821.8,440.8,823.4,440.4,824.5L440.4,824.5z"/>
			<path class="st2" d="M329.5,826.4c4.5-0.5,9-1.1,13.4-2c23.4-5.6,53.7-13.9,62-39.2c-6-28.2-44.9-25.7-67.7-23.9
				c-26.7,4.2-59.2,12-72.3,38C264.7,829.3,308,827.9,329.5,826.4L329.5,826.4z M331.6,838.5c25-3.1,52.3-10.5,69.9-29.6
				c13.8-21.4-6,4.8-14,6.8c-34.6,18.8-79.2,26.5-115.9,9.6C276.9,836.2,312.7,842.3,331.6,838.5L331.6,838.5z M196.6,912
				c26.6-3.1,53.4-10.4,76.1-25.1c34.6-16.6-16.3-20.9-16.8-44.3c-23.1,7.5-48.1-0.1-70.5,10.1c-32.6,1.3-12.2,36.4-35.9,51.5
				C149.7,915.5,183.6,912.5,196.6,912L196.6,912z M289.9,890.2c14.5-26.3-12.8,7.5-24.3,9.7c-38,17.9-84.4,28.8-124.9,13
				c5.1,18.1,40.2,16.5,58.8,15.2C231.5,923.9,267.1,914.8,289.9,890.2z M459.6,923.4c25.5-3.7,51.5-12.9,70.9-30.5
				c21.6-13.7,11.1-50.6-16.4-41.3c-21.7-0.1-41.2-14-60.5-18.5c-23.3-1.1-33.5,21.3-53.1,29c-3.5,5.1,32.2,4.8,38.9,16.5
				C460,885.5,441.1,926.3,459.6,923.4L459.6,923.4z M458,940.1c33.3-4.7,75.8-17.7,89.1-52.2c-21.1,28.6-57.3,41.3-91.4,45.5
				C438,932.8,438.9,947.6,458,940.1L458,940.1z M678,909.5c8.4-0.9,16.9-2.2,24.9-5c28.9-4.4,45.4-41.4,19-60.8
				c-36.2-32.4-89.6-42.6-136.4-32.2c-24.6,3.2-51.1,30.7-31,54.4C583.8,901.3,634,912.3,678,909.5L678,909.5z M680.8,925.7
				c17.6-1.8,36.2-6.4,49.4-18.9c15.9-20.6-3.5,0-14.1,3.8c-49.3,19.6-108.1,9.4-151.5-19.9C595.8,918.6,639.9,928.6,680.8,925.7
				L680.8,925.7z"/>
			<path d="M183.2,843.7l-0.6,1.7l0.6-0.1c0.6-0.1,4.5-1.4,5.5-1.8c0.3-0.1-0.4-0.4-2.2-1c-1.4-0.5-2.7-0.8-2.7-0.7L183.2,843.7
				L183.2,843.7z"/>
			<path class="st3" d="M231.2,823c6-1.9,19.4-0.2,22.1-6.1c1.9-24.7,19-44.3,42.3-52.1c-22.1-10.7-47.9-9.2-71.3-4.4
				c-22,5.8-50.3,14.2-58.1,38.2C171.8,826.2,209.1,824.3,231.2,823L231.2,823z M234.1,839.1c8.2-2.9,26.8,1.8,18.9-12.6
				c-27.4,6-59.1,8.4-83.8-7.5C180.5,842.1,212.1,840.4,234.1,839.1L234.1,839.1z M162.6,852.5c15-1.4,18.3-14.6,3.6-23.2
				c-5.1-21.8-35.2-15.1-52.3-15.8c-27.9,3.7-61.2,11.2-76.2,37.5c19.5-9.7,40.2-17.3,61.8-20.7
				C121.1,826.9,156.2,825.5,162.6,852.5L162.6,852.5z M559.6,788.1c-28.2-17,8.9,11.5,21,11.7C617.9,801.8,564.7,794.1,559.6,788.1
				z M677.3,757.8c-20.3-24.3-55.1-29.3-85.1-29.2c-20.1-0.1-63.8,9-49.9,37c22.7,24.9,59.9,29.8,92,27.9
				C651,792.2,690.9,782.9,677.3,757.8z M681.2,782.8c-0.8,11.9-49.7,15.4-25.6,18C665.2,801.9,682.7,789.2,681.2,782.8z
				 M343.3,856.8c25.4-3.3,50.9-11.7,70.8-28.2c22.1-13.6,23.4-49.3-4.1-57.3c-1.1,5.7,11.5,34.4-4.9,44.6
				c-28.9,26.8-72.1,34.3-110.1,28.9c-10.2,5.2-35.2-22.7-30.6-11.9C280.6,858.5,316.3,859.1,343.3,856.8L343.3,856.8z M557.4,812.6
				c35.1-10.6-17.6-14.4-20.8-33.6c2.5-26.4-24-21.8-42.3-21.3c-21.6,0.8-61.9,10.8-50.7,39.7c20.5,28.1,58.9,34.8,91.7,35.6
				C544.9,832.4,546.7,815.4,557.4,812.6z M364.1,864.5c23.4-3.7,47.2-15.9,62.3-34.5c-35.3,33-89.1,44.3-135.5,32.5
				c-21.9-8.9-1.6,2.2,9.9,4.4C321.9,873,343.3,868.7,364.1,864.5L364.1,864.5z M529.3,844.8c3.6-0.8,9.3,2.8,8-3.7
				c-28.7,0.2-58-5.9-82.6-21.1C475.5,837,503,843.3,529.3,844.8L529.3,844.8z"/>
		</g>
	</g>
</g>
<g id="Layer_6">
	<g>
		<defs>
			<path id="SVGID_4_" d="M348,104.8v1.3l-259,7c0,0,13,44,8,59C92,187,0,275.2,0,365.5v566c0,0,15.8,75.3,29.5,106.5
				s32.5,88.8,113.8,98.8c75.8,4.2,79.5,12.8,228.8,12.8s154.3-4,228.8-12.8c81.3-10,100-67.5,113.8-98.8
				c13.8-31.2,29.5-106.4,29.5-106.4v-566c0-90.3-92-178.5-97-193.5s8-59,8-59l-259-7v-1.3l-24,0.7L348,104.8z"/>
		</defs>
		<clipPath id="SVGID_8_">
			<use xlink:href="#SVGID_4_"  style="overflow:visible;"/>
		</clipPath>
		<g class="st5">
			<path d="M-4.1,853.2c-33.5-3.9-56-19.8-59.2-41.8l-0.4-2.6l0.8-7.4c1-8.7,0.8-6.8,1.6-15.7c0.5-6.1,0.7-7.5,1.1-9
				c1.4-4.5,3.8-9.8,6.4-14c11.4-18.1,34.1-34.8,61.8-45.7l4.2-1.7l-2.3-1C0.3,710-6.1,703.9-8.8,696.7c-1.3-3.4-1.6-5.9-1.2-9.7
				c0.2-2.2,0.4-3.6,0.9-4.9c0.5-1.7,0.6-1.9,0.3-3.5c-0.3-2.3,0.2-7,0.9-9.4c2.6-8.1,9-16,18.3-22.7c21.2-15.3,53.3-24.5,84.9-24.3
				c5.5,0,17.1,1.2,22,2.2c9,1.9,16,4.4,22,8c6.9,4.2,11.5,9.4,13.4,15.1l0.5,1.4l2.2-0.5c6-1.5,15.6-3,22.7-3.7
				c27.1-2.7,51.2,1.3,66.2,11c5.4,3.5,9.6,7.7,12.2,12.2l0.7,1.3l0.9-1.4c2.4-3.5,5.6-6.8,9.4-10c3.1-2.5,4.1-3.2,7.5-5.3
				c11.6-7,27.1-11.7,44.8-13.7l5.6-0.8c8.7-1.6,19.3-2.3,29.6-2.1c4.9,0.1,18.9,1.5,23.6,2.3l8.8,1.8l5.2,1.2l1.5-1.2
				c13.2-10.5,35.9-16.1,63.4-15.5c4.6,0.1,18.9,1.5,23.6,2.3c35.7,6.3,61.7,22.1,65.7,40.1c0.7,2.9,0.7,4.9,0.3,8.2
				c-0.4,2.6-0.6,3.5-1.7,6.2c-0.2,0.4,0.1,0.3,2.3-0.6c5-2.1,12.9-4.4,19.6-5.6c9-1.7,19.5-2.4,30.4-2.2c4.6,0.1,19.1,1.5,23.7,2.3
				c26.6,4.7,47.9,14.6,58.8,27.3c3.9,4.5,6.6,9.9,7.1,14.3c0.1,1,0.2,1.1,1.1,1.5c26.1,12.6,45.8,28.9,53.9,44.3
				c1.4,2.8,2.8,6.3,3.4,8.9c1.3,5.5,1,10.9-1,15.6l-0.6,1.6l0.3,1.5c1.4,7.9-0.5,15-5.5,20.7c-8.7,9.9-25.5,14.9-49.1,14.7
				c-5-0.1-21.1-1.7-26.6-2.7c-16.7-3.1-31.6-7.5-46.7-13.7c-10.5-4.3-22.3-10.3-29.7-14.9l-1.8-1c-0.1,0-0.4,0.4-0.8,1
				c-1.7,3-5.8,6.9-9.8,9.5c-6.8,4.4-16.9,7.9-28.3,9.9c-14,2.4-29.1,2.8-46.1,1.1c-11.6-1.1-21.2-2.8-31.4-5.3
				c-10.6-2.7-22.6-6.8-29.8-10.2l-1.7-0.7l0.6,1.9c1.3,3.9,1.7,6.6,1.5,10.7c-0.2,3-0.5,4.8-1.6,7.8c-0.6,1.6-0.6,1.7-0.4,3.1
				c1.1,7.6-0.3,14.1-4.7,20.3c-7.2,10.4-22.1,18.5-42,22.9c-32.6,7.1-73.9,2.9-104.2-10.7c-2.2-1-5.1-2.4-6.5-3.1
				c-4.7-2.5-3.7-2.3-8.2-1.7c-13.2,1.7-24.1,1.8-38.2,0.5c-7.5-0.7-11.7-1.3-18-2.6c-16.5-3.3-32-9-45-16.5l-2.5-1.5l-1.8,0.9
				c-11.6,5.5-28.3,10.2-43.3,12.2c-13.2,1.8-23.6,2-36.1,0.7l-7.5-0.8l-4.4,1.5C49.2,852.6,20.4,856.1-4.1,853.2L-4.1,853.2z"/>
			<path class="st1" d="M687.2,798.9c18.5,1.5,56.4-1.7,48.7-28.6c-16.4-30.8-51.3-45.3-82.8-56.1c-27.4-7.7-58.3-14.1-85.6-2.7
				c-26.7,17.6,6.4,46.5,24,56.5C620.3,785.6,653.5,796.7,687.2,798.9L687.2,798.9z M685.5,816c15,3.5,49.6-5.4,47.4-16.1
				c-34.3,16.3-74.5,6-108.7-5.7c-24.9-7.5-55.6-30-67.8-43.5c15.2,30.4,49.4,44.8,79.8,55.7C652.2,811.6,668.7,815.2,685.5,816
				L685.5,816z M126.3,817.2c11.2-2,29.5-2.6,14.3-15.8C137.8,806.3,125.1,815.5,126.3,817.2z M353.1,842.2
				c25.9-0.1,56.9-1.7,74.5-23.2c11.8-28.3-27.6-43.7-48.9-49.9c-36.2-9-78.4-11.4-110.6,10.1c-21.9,16.7,2.2,41.9,20.6,48.4
				C308.8,837.1,331,841.3,353.1,842.2L353.1,842.2z M351.5,859.3c25.8,0,56.5-1.9,74.3-22.9c3.9-8.5-20.3,12.2-28.8,10.2
				c-44.2,9.8-94.8,4.2-131.7-23.6c-18.2-18.8,4.8,17.9,15.1,18.2C302,853.3,327,858.3,351.5,859.3L351.5,859.3z M100.1,836.1
				c19.4-0.2,46.4-3.5,59.4-13.1c-12.3-11.1-31.1,7.1-46.6,3.3C109.8,827.8,84.6,838.9,100.1,836.1L100.1,836.1z"/>
			<path d="M404.1,768.1c-0.4-1.3-0.9-3.8-0.9-5c0-0.8-0.1-1-0.4-0.9l-9.5,2.2l3.6,1.5c2.1,0.8,4.5,1.9,5.5,2.3l1.9,0.8
				C404.4,769.1,404.3,768.6,404.1,768.1L404.1,768.1z"/>
			<path d="M254.6,718.1c-0.6-1.1-1.3-2.8-1.7-3.8c-0.4-1-0.7-1.7-0.8-1.7s-0.3,0.4-0.7,0.9c-0.6,0.9-3.3,4.2-3.9,4.8
				c-0.2,0.2-0.3,0.4-0.3,0.5l3.7,0.7l4,0.7l0.5,0.1L254.6,718.1L254.6,718.1z"/>
			<path class="st2" d="M370.9,711.2c22.6-0.1,68-2.1,65.4-33.5c-15.8-26.3-50.5-31.8-78.7-34.1c-24-0.1-64.9,0.4-69,30.4
				c10.8,25.9,43.2,32.1,68.1,36.1C361.4,710.7,366.1,711.1,370.9,711.2L370.9,711.2z M369.6,724c20.1,2.5,57.1-6.7,61.7-18.7
				c-37.1,20.7-84.4,16.1-122.1-0.8c-8.6-1.4-31.3-27.4-15.2-6C314,717.2,343.2,722.8,369.6,724L369.6,724z M516.9,790.2
				c13.6-0.5,49.4-0.1,48.7-11.9c-26-13.9-7.5-52.3-41.7-51c-24.3-8.9-49.9,1.1-74.6-4.9c1.4,24.5-51.6,33-14,47.7
				C460.2,783.6,488.8,789.1,516.9,790.2L516.9,790.2z M515.2,807.3c19.6-0.1,56.4-1.2,60.3-20.6c-41.2,19.8-90.6,12.1-131.8-3.6
				c-12.3-1.4-43.5-34.6-26.3-8.2C443.3,798.8,481.3,805.5,515.2,807.3z M242.4,823.2c19.5,1.5-3.4-39.7,17.5-48.5
				c6.1-12.8,43.5-15.3,39.5-20.4c-21.1-6.5-33.6-29.1-57.9-26.1c-19.8,6.3-39.1,22.4-61.8,24.3c-29.5-7.5-37.6,32-13.8,44.5
				C187.4,813.9,215.3,821.4,242.4,823.2L242.4,823.2z M245.4,840.6c20.6,6.3,20.3-9.3,1.8-7.2c-36-1.7-75-12-99.3-40.3
				C164.7,828.1,210.2,838.4,245.4,840.6L245.4,840.6z M12.6,826.1c46.3-0.6,97.9-16.1,125.8-55.5c19.1-26.4-10.8-53.1-36.8-54.5
				C51.8,709-3.3,724-38.6,760.8c-26.1,22.4-5.9,59.9,24.7,62.1C-5.2,825.1,3.7,825.9,12.6,826.1L12.6,826.1z M10.9,843.2
				c43.1-0.2,88.5-14.1,118.9-45.9c-43.1,34.1-103.8,49.5-157,32.9c-11.4-3.2-33.4-23.2-15.1-2.9C-27.6,839.5-7.7,842.7,10.9,843.2
				L10.9,843.2z"/>
			<path d="M525.4,717.6l-0.9-1.9c-0.1-0.1-1.3,0.3-2.8,0.9c-1.9,0.8-2.5,1.1-2.3,1.2c1.1,0.3,5.3,1.4,5.9,1.5l0.7,0.1L525.4,717.6
				L525.4,717.6z"/>
			<path class="st3" d="M473.5,699.8c23.3-0.4,62.5-1.5,66.1-30.7c-10.1-24.5-40.3-31.1-63.9-35.4c-24.9-3.2-52-2.7-74.3,10.3
				c25,6.4,44.4,25.6,48.4,51.2C453.2,701.2,467,698.3,473.5,699.8L473.5,699.8z M471.8,716.9c23.1-0.5,56.3-1.2,66.3-26.3
				c-24.5,18.6-57.9,18.7-87.1,14.6C443.8,721,463,714.6,471.8,716.9L471.8,716.9z M547.7,725.2c4.6-28.8,41.5-30.1,64.3-28.3
				c22.9,1.9,45.2,8.1,66.3,16.8c-17.7-26.4-53.2-31.6-82.7-33.2c-17.9,2.1-50-2.5-53.5,20.8C527.3,711.4,531.9,724.9,547.7,725.2
				L547.7,725.2z M105.8,703.4c12.7-1.2,49.2-34,21.1-14C122,696.2,66.9,708.6,105.8,703.4z M49.1,701.1
				c33.8-0.5,72.3-8.6,94.1-36.5c12.3-30.4-34.2-36.4-55.2-34.7c-31.5,2.3-67.5,10.3-86.8,37.4C-11.1,694.6,31.4,701.1,49.1,701.1z
				 M27.4,710.5c25-4.7-26.5-4.5-28.3-16.8C-1.9,700.5,17.4,712.4,27.4,710.5z M358.8,744.1c28.5,0.3,65.8-3.2,80.7-31.4
				c3.9-11.7-19.9,19.5-31,14.9c-39.4,8.7-85.2,4.3-117.6-21.4c-18-9.4-7.1-40.4-8.7-46.3c-28.2,10.6-24,47.9,0.3,60.4
				C304.5,735.9,332,742.7,358.8,744.1L358.8,744.1z M156,734.5c34.2-3.5,73.9-13.5,93.1-44.6c9.3-31.1-33.7-38.4-56.3-37.5
				c-19.3,0.9-47.4-1.7-42.6,25.7c-1.8,20.4-56.7,28.5-19.1,36.9C142.6,717.1,145.8,734.8,156,734.5z M337.6,753.9
				c22.2,2.8,44.9,5.5,66.5-2.5c11.9-3.2,32.2-16.4,10-5.4c-47.6,16.1-104.9,8.5-144.5-23.2C287,741,312.9,751.8,337.6,753.9
				L337.6,753.9z M163.1,746.5c27.4-3.7,55.7-12.5,76.2-31.9c-24.5,17.9-54.8,26.5-84.8,28.7C153.6,750.2,159.3,745.9,163.1,746.5
				L163.1,746.5z"/>
		</g>
		<g class="st5">
			<path d="M712.6,753.3c32.1-0.6,54.9-13.6,60-34.1l0.6-2.4l-0.1-7.1c-0.1-8.4-0.1-6.5,0-15c0.1-5.8,0-7.2-0.2-8.6
				c-0.9-4.4-2.7-9.7-4.8-13.8c-9.2-18.2-29-36.2-54.3-49.1l-3.8-2l2.3-0.8c9.6-3.2,16.2-8.3,19.4-14.9c1.5-3.1,2.1-5.5,2.1-9.1
				c0-2.1-0.1-3.5-0.4-4.7c-0.4-1.7-0.4-1.8,0-3.4c0.5-2.1,0.5-6.7,0-9c-1.7-7.9-7-16-15.2-23.3c-18.7-16.5-48.2-28.2-78.1-31
				c-5.2-0.5-16.3-0.5-21,0c-8.7,0.9-15.6,2.7-21.6,5.6c-6.9,3.4-11.8,7.8-14.2,13.1l-0.6,1.3l-2-0.7c-5.6-2-14.5-4.3-21.1-5.7
				c-25.4-5.1-48.7-3.5-63.8,4.2c-5.5,2.8-9.8,6.4-12.7,10.5l-0.8,1.2l-0.8-1.4c-1.9-3.5-4.6-7-8-10.3c-2.7-2.7-3.6-3.4-6.6-5.7
				c-10.3-7.7-24.5-13.6-41.1-17.2l-5.2-1.3c-8.1-2.3-18.1-4-27.9-4.7c-4.7-0.4-18-0.4-22.6,0l-8.5,0.9l-5,0.6l-1.3-1.3
				c-11.6-11.2-32.5-18.6-58.6-20.6c-4.4-0.3-18-0.3-22.6,0c-34.4,2.6-60.5,15.2-66,31.8c-0.9,2.7-1.1,4.6-1,7.7
				c0.1,2.5,0.3,3.4,1.1,6c0.1,0.4-0.2,0.3-2.1-0.8c-4.5-2.5-11.8-5.3-18.1-7.1c-8.4-2.4-18.3-4.1-28.6-4.9
				c-4.4-0.3-18.3-0.3-22.7,0c-25.6,2-46.8,9.4-58.2,20.3c-4.1,3.9-7.2,8.7-8.1,12.8c-0.2,0.9-0.3,1-1.2,1.4
				c-25.9,9.5-46.1,23.1-55.2,36.9c-1.6,2.5-3.3,5.7-4.1,8.1c-1.7,5.1-1.9,10.2-0.5,14.9l0.5,1.6l-0.4,1.4c-2,7.4-0.9,14.3,3.3,20.1
				c7.3,10.2,22.8,16.5,45.1,18.5c4.7,0.4,20.2,0.3,25.5-0.1c16.1-1.4,30.6-4.1,45.6-8.6c10.4-3.1,22.1-7.7,29.5-11.4l1.8-0.8
				c0.1,0,0.4,0.5,0.6,1c1.4,3,4.9,7.1,8.4,9.9c6,4.8,15.3,9.1,25.9,12c13,3.6,27.3,5.3,43.6,5.4c11.1,0,20.4-0.6,30.2-2.1
				c10.3-1.5,22.1-4.3,29.2-6.9l1.6-0.5l-0.8,1.8c-1.6,3.5-2.3,6.1-2.4,10c-0.1,2.9,0.1,4.6,0.8,7.5c0.4,1.6,0.4,1.7,0.1,3
				c-1.8,7.1-1,13.4,2.6,19.7c5.9,10.6,19.2,19.6,37.6,25.6c30.2,9.8,69.8,9.6,99.7-0.4c2.1-0.7,5-1.8,6.4-2.4
				c4.7-1.9,3.7-1.8,7.9-0.9c12.3,2.9,22.7,4,36.2,4c7.2,0,11.2-0.2,17.3-0.8c15.9-1.6,31.2-5.6,44.2-11.4l2.5-1.1l1.7,1
				c10.5,6.3,25.8,12.3,39.9,15.6c12.3,2.9,22.2,4.1,34.2,4l7.2,0l4,1.8C662.2,747.7,689.1,753.7,712.6,753.3L712.6,753.3z"/>
			<path class="st1" d="M62.6,637.2c-17.7-0.3-53.3-6.9-43.5-31.7c18.5-27.6,52.9-38.2,83.7-45.4c26.7-4.7,56.6-7.9,81.3,5.5
				c23.7,19.2-10.4,43.4-28,51.2C127.2,630.9,94.8,638.3,62.6,637.2L62.6,637.2z M62.6,653.6c-14.6,1.9-46.5-9.8-43.5-19.7
				c31,18.7,70,12.7,103.5,4.7c24.3-4.7,55.5-23.2,68.4-34.8c-17.3,27.3-51,37.8-80.8,45.3C94.6,652.5,78.6,654.4,62.6,653.6
				L62.6,653.6z M592.4,707c-10.4-2.9-27.7-5.2-12.1-16.3C582.5,695.6,593.7,705.5,592.4,707z M375.1,709.5
				c-24.5-2.5-53.8-7-68.4-29c-8.5-27.9,30.3-38.8,51-42.8c35.1-5.2,75.3-3.5,103.9,19.9c19.2,17.9-6,39.5-24.1,43.9
				C417.6,708.8,396.1,710.6,375.1,709.5L375.1,709.5z M375,725.8c-24.5-2.4-53.3-7.1-68.2-28.7c-2.9-8.4,18.1,13.5,26.4,12.4
				c41,13.4,89.4,12.8,127-10c19-16.1-6.2,16.5-16,15.8C422.5,724.8,398.4,727.1,375,725.8L375,725.8z M615.5,727.4
				c-18.3-2-43.6-7.6-55-17.9c12.7-9.4,28.8,9.6,43.8,7.5C607,718.5,629.9,731.4,615.5,727.4L615.5,727.4z"/>
			<path d="M333.7,634.5c0.5-1.2,1.2-3.5,1.3-4.7c0.1-0.8,0.2-1,0.5-0.9l8.8,3l-3.6,1.1c-2,0.6-4.5,1.4-5.4,1.7l-1.9,0.6
				C333.4,635.4,333.5,635,333.7,634.5L333.7,634.5z"/>
			<path d="M480.1,601.1c0.6-1,1.5-2.5,2-3.4c0.4-0.9,0.8-1.6,0.9-1.6s0.3,0.4,0.5,0.9c0.5,0.9,2.7,4.3,3.2,4.9
				c0.2,0.2,0.3,0.4,0.2,0.5l-3.6,0.3l-3.9,0.3l-0.5,0L480.1,601.1L480.1,601.1z"/>
			<path class="st2" d="M370.5,583.7c-21.4-2.2-64.3-8.3-58.8-37.8c17.4-23.4,50.8-25.4,77.8-24.9c22.7,2.2,61.5,6.5,62.5,35.3
				c-12.6,23.5-43.9,26.4-67.9,27.8C379.6,584.1,375,584,370.5,583.7L370.5,583.7z M370.5,595.9c-19.3,0.5-53.5-11.7-56.7-23.5
				c33.2,23.1,78.5,23.2,115.8,10.7c8.3-0.6,32.3-23,15-4.3C423.9,594.7,395.7,597.2,370.5,595.9L370.5,595.9z M224.8,644.9
				c-12.9-1.7-46.8-4.7-45.1-15.9c25.9-10.7,12-48.8,44.3-44.5c23.8-6.1,47.2,5.7,71.2,2.3c-3.6,23.1,45.8,36.1,8.8,46.5
				C279.2,643.9,251.5,646.4,224.8,644.9L224.8,644.9z M224.8,661.2c-18.5-2-53.4-6.5-55.2-25.2c37.2,22.6,84.7,19.9,125.3,8.9
				c11.8-0.2,44.5-28.7,25.7-5.3C293.7,659.9,257.1,662.7,224.8,661.2z M481.8,701.8c-18.7-0.4,6.9-37.3-12-47.6
				c-4.6-12.7-39.8-18.6-35.5-23c20.6-4.2,34.6-24.4,57.3-19.4c18.2,7.8,35,24.9,56.3,28.8c28.7-4.3,32.6,33.8,8.9,43.5
				C534.8,698.1,507.6,702.6,481.8,701.8L481.8,701.8z M477.3,718c-20.1,4.1-18.4-10.7-1.1-7c34.3,1.8,72.2-4.4,97.9-28.9
				C555,713.7,510.9,719.2,477.3,718L477.3,718z M699.3,726.1c-43.8-4.9-91.3-24.4-114-64.3c-15.7-26.8,15.2-49.3,40-48.2
				c47.8-2.1,98.7,17.2,128.7,55.4c22.6,23.7,0,57.3-29.2,56.6C716.3,726.8,707.8,726.6,699.3,726.1L699.3,726.1z M699.3,742.4
				c-40.8-4.2-82.6-21.7-108.4-54.6c37.6,36.4,93.8,56.6,145.7,45.9c11.1-2,33.8-18.8,14.6-1.3C736.1,742.5,716.9,743.7,699.3,742.4
				L699.3,742.4z"/>
			<path d="M223.5,575.3l1-1.8c0.1-0.1,1.2,0.4,2.6,1.1c1.7,0.9,2.3,1.3,2,1.4c-1.1,0.2-5.2,0.8-5.8,0.8l-0.7,0L223.5,575.3
				L223.5,575.3z"/>
			<path class="st3" d="M274.4,563.3c-22-2.6-59.1-7.2-59.8-35.3c11.8-22.3,41.1-25.7,63.8-27.6c23.9-0.7,49.6,2.3,69.5,16.7
				c-24.3,3.7-44.5,20.1-50.7,44C293.5,566.5,280.6,562.5,274.4,563.3L274.4,563.3z M274.4,579.6c-21.9-2.6-53.3-6.4-60.4-31.1
				c21.5,20,53.1,23.1,81.2,22C300.5,586.1,282.9,578.2,274.4,579.6L274.4,579.6z M201.7,580.4c-1.7-27.7-36.5-32.4-58.3-32.9
				c-21.8-0.4-43.6,3.5-64.4,9.7c19.3-23.4,53.3-24.9,81.5-23.7c16.8,3.7,47.6,2.3,48.8,24.7C222.3,569.2,216.7,581.6,201.7,580.4
				L201.7,580.4z M622.5,601.1c-11.9-2.3-43.5-36.8-18.7-15.2C607.8,592.7,658.9,609.6,622.5,601.1z M676.4,604.2
				c-32-3.7-67.7-14.9-85.8-43.4c-8.8-30,35.8-31.3,55.6-27.8c29.6,5.1,63,16,78.8,43.5C734,603.6,693.2,605.8,676.4,604.2z
				 M696.1,615.1c-23.3-6.8,25.6-1.7,28.4-13.3C724.8,608.4,705.4,617.8,696.1,615.1z M378.9,616c-27.1-2.3-62.1-9.1-73.5-37.3
				c-2.7-11.4,17.1,20.3,28,17c36.5,12,80.3,12,113.5-9.3c17.9-7.2,10.5-37.6,12.6-43.1c25.7,12.7,18.2,47.6-5.9,57.2
				C431.1,613.3,404.5,617.2,378.9,616L378.9,616z M572,625.8c-32.1-6.5-68.8-19.7-84.1-51c-5.9-30.4,35.5-33.2,56.9-30.3
				c18.2,2.7,45.1,2.8,38,28.3c-0.2,19.5,51,32.3,14.7,36.7C586.3,610.6,581.7,627,572,625.8z M398,627.2c-21.2,0.5-43.1,1-62.8-8.6
				c-11-4.1-29-18.6-9-6c43.6,19.7,98.6,17.9,139.1-8.5C447.3,619.7,421.7,627.6,398,627.2L398,627.2z M564.1,636.5
				c-25.6-6.1-51.6-17-69.2-37.3c21.6,19.2,49.4,30.3,77.7,35.1C572.8,640.9,567.7,636.3,564.1,636.5L564.1,636.5z"/>
		</g>
	</g>
</g>
<g id="Layer_7">
	<g>
		<path d="M-771.7,652.9c-32.1-0.6-54.9-13.6-60-34.1l-0.6-2.4l0.1-7.1c0.1-8.4,0.1-6.5,0-15c-0.1-5.8,0-7.2,0.2-8.6
			c0.9-4.4,2.7-9.7,4.8-13.8c9.2-18.2,29-36.2,54.3-49.1l3.8-2l-2.3-0.8c-9.6-3.2-16.2-8.3-19.4-14.9c-1.5-3.1-2.1-5.5-2.1-9.1
			c0-2.1,0.1-3.5,0.4-4.7c0.4-1.7,0.4-1.8,0-3.4c-0.5-2.1-0.5-6.7,0-9c1.7-7.9,7-16,15.2-23.3c18.7-16.5,48.2-28.2,78.1-31
			c5.2-0.5,16.3-0.5,21,0c8.7,0.9,15.6,2.7,21.6,5.6c6.9,3.4,11.8,7.8,14.2,13.1l0.6,1.3l2-0.7c5.6-2,14.5-4.3,21.1-5.7
			c25.4-5.1,48.7-3.5,63.8,4.2c5.5,2.8,9.8,6.4,12.7,10.5l0.8,1.2l0.8-1.4c1.9-3.5,4.6-7,8-10.3c2.7-2.7,3.6-3.4,6.6-5.7
			c10.3-7.7,24.5-13.6,41.1-17.2l5.2-1.3c8.1-2.3,18.1-4,27.9-4.7c4.7-0.4,18-0.4,22.6,0l8.5,0.9l5,0.6l1.3-1.3
			c11.6-11.2,32.5-18.6,58.6-20.6c4.4-0.3,18-0.3,22.6,0c34.4,2.6,60.5,15.2,66,31.8c0.9,2.7,1.1,4.6,1,7.7c-0.1,2.5-0.3,3.4-1.1,6
			c-0.1,0.4,0.2,0.3,2.1-0.8c4.5-2.5,11.8-5.3,18.1-7.1c8.4-2.4,18.3-4.1,28.6-4.9c4.4-0.3,18.3-0.3,22.7,0
			c25.6,2,46.8,9.4,58.2,20.3c4.1,3.9,7.2,8.7,8.1,12.8c0.2,0.9,0.3,1,1.2,1.4c25.9,9.5,46.1,23.1,55.2,36.9
			c1.6,2.5,3.3,5.7,4.1,8.1c1.7,5.1,1.9,10.2,0.5,14.9l-0.5,1.6l0.4,1.4c2,7.4,0.9,14.3-3.3,20.1c-7.3,10.2-22.8,16.5-45.1,18.5
			c-4.7,0.4-20.2,0.3-25.5-0.1c-16.1-1.4-30.6-4.1-45.6-8.6c-10.4-3.1-22.1-7.7-29.5-11.4l-1.8-0.8c-0.1,0-0.4,0.5-0.6,1
			c-1.4,3-4.9,7.1-8.4,9.9c-6,4.8-15.3,9.1-25.9,12c-13,3.6-27.3,5.3-43.6,5.4c-11.1,0-20.4-0.6-30.2-2.1
			c-10.3-1.5-22.1-4.3-29.2-6.9l-1.6-0.5l0.8,1.8c1.6,3.5,2.3,6.1,2.4,10c0.1,2.9-0.1,4.6-0.8,7.5c-0.4,1.6-0.4,1.7-0.1,3
			c1.8,7.1,1,13.4-2.6,19.7c-5.9,10.6-19.2,19.6-37.6,25.6c-30.2,9.8-69.8,9.6-99.7-0.4c-2.1-0.7-5-1.8-6.4-2.4
			c-4.7-1.9-3.7-1.8-7.9-0.9c-12.3,2.9-22.7,4-36.2,4c-7.2,0-11.2-0.2-17.3-0.8c-15.9-1.6-31.2-5.6-44.2-11.4l-2.5-1.1l-1.7,1
			c-10.5,6.3-25.8,12.3-39.9,15.6c-12.3,2.9-22.2,4.1-34.2,4l-7.2,0l-4,1.8C-721.3,647.3-748.2,653.3-771.7,652.9L-771.7,652.9z"/>
		<path class="st1" d="M-121.7,536.9c17.7-0.3,53.3-6.9,43.5-31.7c-18.5-27.6-52.9-38.2-83.7-45.4c-26.7-4.7-56.6-7.9-81.3,5.5
			c-23.7,19.2,10.4,43.4,28,51.2C-186.3,530.5-153.9,537.9-121.7,536.9L-121.7,536.9z M-121.7,553.2c14.6,1.9,46.5-9.8,43.5-19.7
			c-31,18.7-70,12.7-103.5,4.7c-24.3-4.7-55.5-23.2-68.4-34.8c17.3,27.3,51,37.8,80.8,45.3C-153.7,552.1-137.7,554-121.7,553.2
			L-121.7,553.2z M-651.5,606.6c10.4-2.9,27.7-5.2,12.1-16.3C-641.6,595.2-652.8,605.1-651.5,606.6z M-434.2,609.1
			c24.5-2.5,53.8-7,68.4-29c8.5-27.9-30.3-38.8-51-42.8c-35.1-5.2-75.3-3.5-103.9,19.9c-19.2,17.9,6,39.5,24.1,43.9
			C-476.7,608.4-455.2,610.3-434.2,609.1L-434.2,609.1z M-434.1,625.5c24.5-2.4,53.3-7.1,68.2-28.7c2.9-8.4-18.1,13.5-26.4,12.4
			c-41,13.4-89.4,12.8-127-10c-19-16.1,6.2,16.5,16,15.8C-481.6,624.4-457.5,626.7-434.1,625.5L-434.1,625.5z M-674.6,627
			c18.3-2,43.6-7.6,55-17.9c-12.7-9.4-28.8,9.6-43.8,7.5C-666.1,618.2-689,631-674.6,627L-674.6,627z"/>
		<path d="M-392.8,534.1c-0.5-1.2-1.2-3.5-1.3-4.7c-0.1-0.8-0.2-1-0.5-0.9l-8.8,3l3.6,1.1c2,0.6,4.5,1.4,5.4,1.7l1.9,0.6
			C-392.5,535-392.6,534.6-392.8,534.1L-392.8,534.1z"/>
		<path d="M-539.2,500.7c-0.6-1-1.5-2.5-2-3.4s-0.8-1.6-0.9-1.6s-0.3,0.4-0.5,0.9c-0.5,0.9-2.7,4.3-3.2,4.9
			c-0.2,0.2-0.3,0.4-0.2,0.5l3.6,0.3l3.9,0.3l0.5,0L-539.2,500.7L-539.2,500.7z"/>
		<path class="st2" d="M-429.6,483.3c21.4-2.2,64.3-8.3,58.8-37.8c-17.4-23.4-50.8-25.4-77.8-24.9c-22.7,2.2-61.5,6.5-62.5,35.3
			c12.6,23.5,43.9,26.4,67.9,27.8C-438.7,483.7-434.1,483.6-429.6,483.3L-429.6,483.3z M-429.6,495.6c19.3,0.5,53.5-11.7,56.7-23.5
			c-33.2,23.1-78.5,23.2-115.8,10.7c-8.3-0.6-32.3-23-15-4.3C-483,494.3-454.8,496.8-429.6,495.6L-429.6,495.6z M-283.9,544.5
			c12.9-1.7,46.8-4.7,45.1-15.9c-25.9-10.7-12-48.8-44.3-44.5c-23.8-6.1-47.2,5.7-71.2,2.3c3.6,23.1-45.8,36.1-8.8,46.5
			C-338.3,543.5-310.6,546.1-283.9,544.5L-283.9,544.5z M-283.9,560.9c18.5-2,53.4-6.5,55.2-25.2c-37.2,22.6-84.7,19.9-125.3,8.9
			c-11.8-0.2-44.5-28.7-25.7-5.3C-352.8,559.6-316.2,562.3-283.9,560.9z M-540.9,601.4c18.7-0.4-6.9-37.3,12-47.6
			c4.6-12.7,39.8-18.6,35.5-23c-20.6-4.2-34.6-24.4-57.3-19.4c-18.2,7.8-35,24.9-56.3,28.8c-28.7-4.3-32.6,33.8-8.9,43.5
			C-593.9,597.7-566.7,602.3-540.9,601.4L-540.9,601.4z M-536.4,617.6c20.1,4.1,18.4-10.7,1.1-7c-34.3,1.8-72.2-4.4-97.9-28.9
			C-614.1,613.4-570,618.8-536.4,617.6L-536.4,617.6z M-758.4,625.7c43.8-4.9,91.3-24.4,114-64.3c15.7-26.8-15.2-49.3-40-48.2
			c-47.8-2.1-98.7,17.2-128.7,55.4c-22.6,23.7,0,57.3,29.2,56.6C-775.4,626.4-766.9,626.3-758.4,625.7L-758.4,625.7z M-758.4,642.1
			c40.8-4.2,82.6-21.7,108.4-54.6c-37.6,36.4-93.8,56.6-145.7,45.9c-11.1-2-33.8-18.8-14.6-1.3C-795.2,642.1-776,643.3-758.4,642.1
			L-758.4,642.1z"/>
		<path d="M-282.6,474.9l-1-1.8c-0.1-0.1-1.2,0.4-2.6,1.1c-1.7,0.9-2.3,1.3-2,1.4c1.1,0.2,5.2,0.8,5.8,0.8l0.7,0L-282.6,474.9
			L-282.6,474.9z"/>
		<path class="st3" d="M-333.5,462.9c22-2.6,59.1-7.2,59.8-35.3c-11.8-22.3-41.1-25.7-63.8-27.6c-23.9-0.7-49.6,2.3-69.5,16.7
			c24.3,3.7,44.5,20.1,50.7,44C-352.6,466.1-339.7,462.1-333.5,462.9L-333.5,462.9z M-333.5,479.3c21.9-2.6,53.3-6.4,60.4-31.1
			c-21.5,20-53.1,23.1-81.2,22C-359.6,485.8-342,477.9-333.5,479.3L-333.5,479.3z M-260.8,480c1.7-27.7,36.5-32.4,58.3-32.9
			c21.8-0.4,43.6,3.5,64.4,9.7c-19.3-23.4-53.3-24.9-81.5-23.7c-16.8,3.7-47.6,2.3-48.8,24.7C-281.4,468.8-275.8,481.3-260.8,480
			L-260.8,480z M-681.6,500.7c11.9-2.3,43.5-36.8,18.7-15.2C-666.9,492.4-718,509.2-681.6,500.7z M-735.5,503.8
			c32-3.7,67.7-14.9,85.8-43.4c8.8-30-35.8-31.3-55.6-27.8c-29.6,5.1-63,16-78.8,43.5C-793.1,503.3-752.3,505.4-735.5,503.8z
			 M-755.2,514.8c23.3-6.8-25.6-1.7-28.4-13.3C-783.9,508-764.5,517.5-755.2,514.8z M-438,515.6c27.1-2.3,62.1-9.1,73.5-37.3
			c2.7-11.4-17.1,20.3-28,17c-36.5,12-80.3,12-113.5-9.3c-17.9-7.2-10.5-37.6-12.6-43.1c-25.7,12.7-18.2,47.6,5.9,57.2
			C-490.2,512.9-463.6,516.8-438,515.6L-438,515.6z M-631.1,525.4c32.1-6.5,68.8-19.7,84.1-51c5.9-30.4-35.5-33.2-56.9-30.3
			c-18.2,2.7-45.1,2.8-38,28.3c0.2,19.5-51,32.3-14.7,36.7C-645.4,510.2-640.8,526.6-631.1,525.4z M-457.1,526.8
			c21.2,0.5,43.1,1,62.8-8.6c11-4.1,29-18.6,9-6c-43.6,19.7-98.6,17.9-139.1-8.5C-506.4,519.3-480.8,527.2-457.1,526.8L-457.1,526.8
			z M-623.2,536.2c25.6-6.1,51.6-17,69.2-37.3c-21.6,19.2-49.4,30.3-77.7,35.1C-631.9,540.5-626.9,536-623.2,536.2L-623.2,536.2z"/>
	</g>
	<g>
		<defs>
			<path id="SVGID_5_" d="M348,104.8v1.3l-259,7c0,0,13,44,8,59C92,187,0,275.2,0,365.5v566c0,0,15.8,75.3,29.5,106.5
				s32.5,88.8,113.8,98.8c75.8,4.2,79.5,12.8,228.8,12.8s154.3-4,228.8-12.8c81.3-10,100-67.5,113.8-98.8
				c13.8-31.2,29.5-106.4,29.5-106.4v-566c0-90.3-92-178.5-97-193.5s8-59,8-59l-259-7v-1.3l-24,0.7L348,104.8z"/>
		</defs>
		<clipPath id="SVGID_9_">
			<use xlink:href="#SVGID_5_"  style="overflow:visible;"/>
		</clipPath>
		<g class="st6">
			<path d="M48.4,486.8c-32.1-1.6-54.5-15.3-58.9-35.9l-0.5-2.4l0.3-7.1c0.4-8.3,0.3-6.5,0.5-15c0.1-5.8,0.2-7.2,0.5-8.6
				c1-4.3,3-9.6,5.2-13.7c9.7-17.9,30.1-35.2,55.8-47.4l3.9-1.9l-2.3-0.8c-9.4-3.5-15.9-8.8-19-15.5c-1.4-3.2-1.9-5.5-1.8-9.2
				c0.1-2.1,0.2-3.5,0.5-4.7c0.4-1.7,0.4-1.8,0.1-3.4c-0.4-2.1-0.3-6.7,0.3-9c1.9-7.8,7.5-15.8,15.9-22.8
				c19.2-15.9,49.1-26.6,79.1-28.5c5.2-0.3,16.3,0,21,0.7c8.7,1.2,15.5,3.2,21.4,6.2c6.8,3.6,11.5,8.2,13.7,13.5l0.5,1.3l2-0.6
				c5.6-1.8,14.6-3.9,21.3-5c25.6-4.3,48.8-2,63.6,6.2c5.4,3,9.6,6.7,12.3,10.8l0.8,1.2l0.8-1.4c2-3.4,4.9-6.8,8.3-10.1
				c2.8-2.6,3.7-3.3,6.8-5.5c10.5-7.4,25-12.9,41.7-15.9l5.3-1.1c8.2-2,18.2-3.4,28-3.8c4.7-0.2,18,0.2,22.6,0.7l8.4,1.1l5,0.8
				l1.4-1.3c11.9-10.8,33.1-17.5,59.2-18.8c4.4-0.2,18,0.2,22.6,0.7c34.3,3.7,60,17.1,65,33.9c0.8,2.7,1,4.6,0.8,7.7
				c-0.2,2.5-0.4,3.4-1.3,6c-0.1,0.4,0.2,0.3,2.2-0.7c4.6-2.3,11.9-5,18.3-6.6c8.4-2.2,18.4-3.6,28.7-4c4.4-0.2,18.3,0.2,22.7,0.7
				c25.5,2.8,46.4,10.8,57.6,22.1c4,4.1,6.9,9,7.7,13.1c0.2,1,0.3,1,1.1,1.4c25.6,10.3,45.4,24.5,54.1,38.6c1.5,2.5,3.1,5.8,3.8,8.2
				c1.6,5.2,1.6,10.3,0.1,14.9l-0.5,1.5l0.3,1.4c1.8,7.4,0.5,14.3-3.9,20c-7.6,10-23.3,15.8-45.7,17.1c-4.7,0.3-20.2-0.3-25.5-0.9
				c-16.1-1.9-30.5-5.1-45.3-10c-10.3-3.4-21.9-8.3-29.1-12.3l-1.8-0.9c-0.1,0-0.4,0.5-0.7,1c-1.5,2.9-5.1,7-8.7,9.6
				c-6.2,4.6-15.6,8.6-26.3,11.2c-13.1,3.2-27.5,4.5-43.7,4c-11.1-0.3-20.3-1.3-30.2-3.1c-10.2-1.8-21.9-5-28.9-7.8l-1.6-0.6
				l0.7,1.8c1.5,3.6,2.1,6.1,2.1,10c0,2.9-0.2,4.6-1,7.5c-0.4,1.5-0.4,1.7-0.2,3c1.6,7.2,0.6,13.4-3.2,19.6
				c-6.2,10.4-19.8,19-38.4,24.4c-30.5,8.8-70,7.4-99.7-3.5c-2.1-0.8-5-1.9-6.4-2.6c-4.6-2.1-3.7-2-7.9-1.1
				c-12.4,2.5-22.8,3.3-36.3,2.9c-7.2-0.2-11.2-0.5-17.3-1.3c-15.9-2.1-31-6.5-43.8-12.8l-2.5-1.2l-1.7,0.9
				c-10.6,6-26.2,11.5-40.4,14.4c-12.4,2.5-22.3,3.4-34.3,2.9l-7.2-0.3l-4,1.7C99,482.8,71.9,487.9,48.4,486.8L48.4,486.8z"/>
			<path class="st1" d="M701.7,391.1c17.7,0.3,53.5-5.2,44.5-30.3c-17.6-28.2-51.7-39.8-82.2-48c-26.5-5.5-56.3-9.7-81.5,2.9
				c-24.2,18.5,9,43.7,26.4,52.1C637.3,382.7,669.5,391.2,701.7,391.1L701.7,391.1z M701.2,407.5c14.5,2.3,46.7-8.3,44.1-18.3
				c-31.6,17.7-70.4,10.5-103.6,1.5c-24.1-5.5-54.7-24.9-67.2-37c16.4,27.9,49.8,39.4,79.4,47.8
				C669.3,405.3,685.2,407.7,701.2,407.5L701.2,407.5z M170,444.3c10.5-2.6,27.9-4.4,12.6-15.9C180.2,433.2,168.8,442.7,170,444.3z
				 M387.1,453.5c24.6-1.7,54-5.3,69.3-26.8c9.4-27.6-29-39.7-49.6-44.3c-34.9-6.3-75.2-5.8-104.4,16.7
				c-19.7,17.3,4.8,39.6,22.7,44.7C344.6,451.5,366,454.1,387.1,453.5L387.1,453.5z M386.7,469.9c24.5-1.7,53.5-5.4,69.1-26.5
				c3.2-8.3-18.5,12.9-26.7,11.5c-41.4,12.1-89.8,10-126.6-14c-18.5-16.7,5.7,16.7,15.5,16.3C339.2,467.3,363.3,470.5,386.7,469.9
				L386.7,469.9z M146.3,463.9c18.4-1.5,43.8-6.3,55.6-16.2c-12.4-9.7-29.1,8.7-44,6.1C155,455.4,131.8,467.5,146.3,463.9
				L146.3,463.9z"/>
			<path d="M430.8,379.9c-0.5-1.2-1.1-3.5-1.2-4.7c-0.1-0.8-0.2-1-0.4-0.9l-8.9,2.7l3.5,1.2c2,0.7,4.4,1.5,5.4,1.9l1.9,0.7
				C431.1,380.8,431,380.4,430.8,379.9L430.8,379.9z"/>
			<path d="M285.5,341.9c-0.6-1-1.4-2.6-1.8-3.5s-0.8-1.6-0.8-1.6c-0.1,0-0.3,0.4-0.6,0.9c-0.5,0.9-2.8,4.2-3.4,4.8
				c-0.2,0.2-0.3,0.4-0.2,0.5l3.6,0.4l3.9,0.4l0.5,0L285.5,341.9L285.5,341.9z"/>
			<path class="st2" d="M395.6,327.9c21.5-1.6,64.5-6.3,60-36c-16.7-23.9-50-27-77-27.3c-22.8,1.5-61.6,4.5-63.6,33.3
				c11.9,23.9,43.1,27.8,67,29.9C386.6,328.1,391.1,328.1,395.6,327.9L395.6,327.9z M395.2,340.2c19.3,1.1,53.8-10,57.4-21.7
				c-33.9,22-79.1,20.7-116,7.1c-8.2-0.8-31.5-24-14.8-4.8C341.9,337.3,370.1,340.7,395.2,340.2L395.2,340.2z M539.4,393.7
				c12.9-1.3,46.9-3.2,45.5-14.5c-25.6-11.5-10.4-49.2-42.9-45.8c-23.6-6.9-47.3,4.2-71.2,0.1c2.9,23.2-46.9,34.7-10.3,46.2
				C485,391,512.6,394.4,539.4,393.7L539.4,393.7z M538.9,410c18.6-1.4,53.5-4.8,56-23.4c-37.9,21.4-85.3,17.3-125.5,5
				c-11.8-0.6-43.6-30.1-25.5-6.1C470,406.6,506.5,410.4,538.9,410z M280.7,442.6c18.7,0.2-5.8-37.5,13.5-47.2
				c5-12.6,40.3-17.3,36.2-21.9c-20.5-4.8-33.8-25.5-56.7-21.1c-18.4,7.2-35.8,23.8-57.2,27c-28.5-5.2-33.6,32.8-10.3,43.2
				C227.8,437.2,254.8,442.6,280.7,442.6L280.7,442.6z M284.7,458.9c20,4.7,18.7-10.1,1.3-6.9c-34.3,0.7-72-6.6-97-32
				C207.1,452.2,251,459,284.7,458.9L284.7,458.9z M62.5,460c43.9-3.5,92-21.6,116-60.7c16.5-26.3-13.6-49.7-38.5-49.4
				c-47.8-3.6-99.2,14.1-130.4,51.3c-23.3,23-1.7,57.3,27.5,57.5C45.5,460.2,54.1,460.3,62.5,460L62.5,460z M62,476.4
				c40.9-3,83.2-19.1,110-51.2c-38.8,35.2-95.5,53.7-147.1,41.3c-11-2.3-33.2-19.9-14.5-1.8C25.2,475.2,44.3,477.1,62,476.4
				L62,476.4z"/>
			<path d="M542.8,324.1l-0.9-1.8c-0.1-0.1-1.3,0.4-2.6,1c-1.7,0.8-2.3,1.2-2.1,1.3c1.1,0.3,5.2,1,5.7,1l0.7,0L542.8,324.1
				L542.8,324.1z"/>
			<path class="st3" d="M492.3,310.6c22.1-1.9,59.3-5.4,60.9-33.4c-11.1-22.7-40.3-26.9-62.9-29.6c-23.9-1.5-49.6,0.7-69.9,14.5
				c24.1,4.5,43.9,21.4,49.3,45.6C473.1,313.2,486.1,309.6,492.3,310.6L492.3,310.6z M491.8,326.9c21.9-1.9,53.4-4.7,61.4-29.2
				c-22.1,19.3-53.8,21.5-81.8,19.4C465.5,332.6,483.3,325.3,491.8,326.9L491.8,326.9z M564.4,330c2.5-27.6,37.5-31.2,59.3-31
				c21.8,0.3,43.4,4.8,64.1,11.7c-18.5-23.9-52.5-26.6-80.7-26.3c-16.9,3.2-47.6,0.8-49.5,23.1C544.2,318.1,549.4,330.7,564.4,330
				L564.4,330z M143.2,337.5c12-2,44.6-35.5,19.2-14.6C158.2,329.6,106.6,344.8,143.2,337.5z M89.2,338.9
				c32.1-2.7,68.2-12.8,87.1-40.7c9.8-29.7-34.8-32.4-54.7-29.5c-29.7,4.2-63.5,14.1-80.1,41C31.6,336.5,72.4,340,89.2,338.9z
				 M69.2,349.2c23.5-6-25.5-2.5-28-14.2C40.7,341.6,59.8,351.6,69.2,349.2z M386.2,360c27.1-1.5,62.3-7.2,74.6-35
				c3-11.3-17.7,19.8-28.5,16.1c-36.9,10.8-80.7,9.5-113.1-12.9c-17.7-7.8-9.4-37.9-11.2-43.4c-26.1,11.9-19.7,47,4.1,57.3
				C334.1,355.6,360.6,360.4,386.2,360L386.2,360z M192.9,363.7c32.3-5.5,69.3-17.5,85.6-48.3c6.9-30.2-34.4-34.3-55.9-32
				c-18.2,2.1-45.1,1.4-38.9,27.1c-0.4,19.5-52,30.7-15.8,36.3C179,348.1,183.2,364.7,192.9,363.7z M366.7,370.6
				c21.2,1.2,43,2.3,63-6.6c11.1-3.8,29.6-17.6,9.2-5.7c-44.2,18.3-99.1,14.8-138.7-12.9C317.8,361.6,343.1,370.3,366.7,370.6
				L366.7,370.6z M200.5,374.7c25.8-5.3,52.1-15.4,70.3-35.2c-22.2,18.5-50.4,28.7-78.8,32.6C191.6,378.8,196.8,374.4,200.5,374.7
				L200.5,374.7z"/>
		</g>
		<g class="st6">
			<path d="M719.5,610.7c32.9-4,55-19.7,58-41.3l0.4-2.6l-0.9-7.3c-1-8.6-0.8-6.7-1.6-15.4c-0.5-6-0.7-7.4-1.1-8.8
				c-1.3-4.4-3.8-9.6-6.4-13.7c-11.3-17.7-33.6-34.1-60.9-44.7l-4.2-1.6l2.3-1c9.5-4.3,15.8-10.3,18.4-17.4c1.2-3.4,1.5-5.8,1.2-9.6
				c-0.2-2.2-0.5-3.5-0.9-4.8c-0.5-1.7-0.6-1.8-0.4-3.5c0.3-2.2-0.2-6.9-1-9.2c-2.6-7.9-8.9-15.7-18.1-22.3
				c-20.9-14.9-52.5-23.8-83.5-23.6c-5.4,0-16.8,1.2-21.6,2.2c-8.9,1.9-15.7,4.4-21.5,8c-6.8,4.2-11.3,9.3-13.2,14.9l-0.5,1.4
				l-2.1-0.5c-5.9-1.4-15.3-2.9-22.3-3.6c-26.6-2.5-50.4,1.5-65.1,11.1c-5.3,3.4-9.4,7.6-11.9,12.1l-0.7,1.3l-0.9-1.3
				c-2.3-3.4-5.5-6.7-9.3-9.7c-3.1-2.5-4.1-3.1-7.4-5.2c-11.4-6.8-26.6-11.4-44.1-13.3l-5.5-0.7c-8.6-1.5-19-2.2-29.1-1.9
				c-4.8,0.1-18.6,1.5-23.2,2.4l-8.6,1.8l-5.1,1.2l-1.5-1.2c-13-10.3-35.3-15.6-62.4-15c-4.5,0.1-18.5,1.5-23.2,2.4
				c-35.1,6.3-60.5,22-64.4,39.7c-0.6,2.9-0.7,4.8-0.2,8c0.4,2.5,0.6,3.4,1.7,6.1c0.2,0.4-0.1,0.3-2.3-0.6c-4.9-2-12.7-4.2-19.3-5.4
				c-8.8-1.6-19.2-2.3-29.9-2c-4.6,0.1-18.8,1.6-23.3,2.4c-26.1,4.8-47,14.6-57.6,27c-3.8,4.5-6.4,9.7-7,14c-0.1,1-0.2,1.1-1.1,1.5
				c-25.6,12.5-44.9,28.6-52.8,43.7c-1.4,2.7-2.7,6.2-3.3,8.7c-1.2,5.4-0.9,10.7,1,15.3l0.6,1.5l-0.3,1.5
				c-1.3,7.8,0.6,14.7,5.5,20.3c8.6,9.7,25.1,14.6,48.3,14.2c4.9-0.1,20.8-1.8,26.1-2.8c16.4-3.1,31-7.5,45.9-13.7
				c10.3-4.3,21.9-10.2,29.1-14.8l1.8-1c0.1,0,0.4,0.4,0.8,1c1.7,2.9,5.8,6.8,9.7,9.3c6.7,4.3,16.6,7.7,27.9,9.6
				c13.7,2.3,28.6,2.6,45.3,0.9c11.4-1.2,20.8-2.8,30.8-5.4c10.4-2.7,22.2-6.8,29.2-10.2l1.6-0.7l-0.6,1.9
				c-1.3,3.8-1.7,6.5-1.4,10.5c0.2,3,0.5,4.7,1.6,7.6c0.6,1.6,0.6,1.7,0.4,3c-1.1,7.5,0.4,13.8,4.7,20c7.1,10.2,21.8,18.1,41.4,22.3
				c32.1,6.8,72.6,2.5,102.4-10.9c2.1-1,5-2.4,6.4-3.1c4.6-2.5,3.6-2.3,8-1.7c12.9,1.6,23.7,1.7,37.6,0.3c7.4-0.8,11.5-1.4,17.7-2.6
				c16.2-3.4,31.5-9,44.1-16.4l2.5-1.4l1.8,0.8c11.4,5.3,27.8,9.9,42.6,11.9c13,1.7,23.2,1.8,35.5,0.5l7.3-0.8l4.3,1.5
				C667.1,610.3,695.4,613.6,719.5,610.7L719.5,610.7z"/>
			<path class="st1" d="M39.8,560.2c-18.2,1.6-55.4-1.4-48-27.9c16-30.3,50.3-44.8,81.1-55.5c26.9-7.6,57.3-14.1,84.1-3
				c26.3,17.2-6.1,45.7-23.4,55.6C105.5,546.9,73,557.9,39.8,560.2L39.8,560.2z M41.6,577c-14.8,3.5-48.7-5.1-46.7-15.6
				c33.8,15.9,73.2,5.6,106.8-6.1c24.4-7.4,54.5-29.7,66.5-43c-14.8,29.9-48.3,44.2-78.2,55C74.3,572.5,58,576.1,41.6,577L41.6,577z
				 M591.2,575.9c-11-1.9-29-2.4-14.1-15.5C579.8,565.2,592.3,574.2,591.2,575.9z M368.4,601.4c-25.5,0-55.9-1.5-73.3-22.5
				c-11.7-27.8,27-43,47.9-49.3c35.5-9,77-11.5,108.8,9.5c21.6,16.3-2,41.2-20.1,47.6C411.9,596.2,390,600.4,368.4,601.4
				L368.4,601.4z M370,618.2c-25.4,0.1-55.5-1.6-73.1-22.2c-3.9-8.3,20,11.9,28.4,9.9c43.5,9.4,93.2,3.7,129.3-23.7
				c17.8-18.6-4.7,17.6-14.8,17.9C418.6,612.1,394.1,617,370,618.2L370,618.2z M617,594.4c-19-0.1-45.6-3.2-58.4-12.6
				c12.1-10.9,30.6,6.8,45.8,3.1C607.4,586.2,632.2,597,617,594.4L617,594.4z"/>
			<path d="M317.9,528.7c0.4-1.3,0.8-3.7,0.9-4.9c0-0.8,0.1-1,0.4-0.9l9.4,2.1l-3.6,1.5c-2,0.8-4.4,1.9-5.4,2.3l-1.9,0.8
				C317.7,529.7,317.7,529.3,317.9,528.7L317.9,528.7z"/>
			<path d="M464.7,479c0.5-1.1,1.3-2.8,1.6-3.7s0.7-1.7,0.8-1.7c0.1,0,0.3,0.4,0.6,0.8c0.6,0.9,3.2,4.2,3.8,4.7
				c0.2,0.2,0.3,0.4,0.3,0.5l-3.6,0.7l-3.9,0.7l-0.5,0.1L464.7,479L464.7,479z"/>
			<path class="st2" d="M350.3,472.7c-22.2,0-66.9-1.8-64.4-32.6c15.4-25.9,49.5-31.5,77.2-33.8c23.6-0.2,63.8,0.2,67.9,29.6
				c-10.5,25.5-42.3,31.7-66.8,35.8C359.7,472.2,355,472.5,350.3,472.7L350.3,472.7z M351.6,485.3c-19.8,2.6-56.2-6.4-60.7-18.1
				c36.5,20.2,83,15.5,120-1.2c8.4-1.4,30.7-27,14.9-6C406.3,478.4,377.6,483.9,351.6,485.3L351.6,485.3z M207.1,550.9
				c-13.4-0.4-48.5,0.1-47.9-11.5c25.5-13.8,7.1-51.4,40.8-50.3c23.8-8.8,49,0.9,73.3-5.2c-1.3,24.1,50.8,32.3,14,46.8
				C262.9,544.2,234.8,549.7,207.1,550.9L207.1,550.9z M208.9,567.7c-19.2-0.1-55.5-1-59.4-20c40.6,19.2,89.1,11.5,129.6-4.1
				c12.1-1.4,42.7-34.2,25.8-8.2C279.6,559.1,242.2,565.8,208.9,567.7z M477.1,582.2c-19.2,1.6,3.2-39-17.4-47.6
				c-6-12.6-42.8-14.9-38.9-19.9c20.7-6.5,32.9-28.8,56.8-25.9c19.5,6.1,38.6,21.9,60.9,23.6c29-7.5,37,31.3,13.8,43.7
				C531.1,572.8,503.7,580.4,477.1,582.2L477.1,582.2z M474.2,599.3c-20.2,6.3-20-9-1.8-7.1c35.4-1.8,73.7-12.1,97.5-40
				C553.5,586.8,508.8,597,474.2,599.3L474.2,599.3z M703,584.2c-45.5-0.4-96.3-15.4-123.9-54c-18.9-25.9,10.4-52.2,36-53.7
				c48.9-7.2,103.2,7.2,138,43.3c25.7,22,6,58.8-24,61.2C720.5,583.1,711.7,583.9,703,584.2L703,584.2z M704.7,601
				c-42.4,0-87.1-13.5-117-44.6c42.5,33.4,102.2,48.3,154.4,31.7c11.2-3.2,32.7-22.9,14.8-2.9C742.5,597.1,722.9,600.4,704.7,601
				L704.7,601z"/>
			<path d="M198.5,479.6l0.8-1.9c0.1-0.1,1.3,0.3,2.8,0.9c1.8,0.7,2.5,1.1,2.2,1.2c-1.1,0.3-5.2,1.4-5.8,1.5l-0.7,0.1L198.5,479.6
				L198.5,479.6z"/>
			<path class="st3" d="M249.5,461.9c-22.9-0.3-61.4-1.2-65.1-29.9c9.8-24.1,39.5-30.7,62.6-35.1c24.5-3.3,51.1-2.9,73.1,9.8
				c-24.5,6.4-43.6,25.3-47.4,50.5C269.4,463.2,255.8,460.4,249.5,461.9L249.5,461.9z M251.2,478.7c-22.7-0.4-55.4-0.9-65.3-25.5
				c24.2,18.2,57,18.1,85.7,14C278.7,482.6,259.8,476.4,251.2,478.7L251.2,478.7z M176.7,487.1c-4.6-28.3-40.9-29.4-63.4-27.6
				c-22.5,1.9-44.4,8.2-65.1,16.8c17.3-26,52.1-31.2,81.2-33c17.6,2,49.1-2.7,52.7,20.2C196.6,473.5,192.2,486.8,176.7,487.1
				L176.7,487.1z M610.9,464c-12.5-1.1-48.5-33.2-20.8-13.6C594.9,456.9,649.2,468.8,610.9,464z M666.6,461.5
				c-33.2-0.4-71.1-8.1-92.6-35.5c-12.3-29.9,33.5-35.9,54.1-34.4c30.9,2.1,66.4,9.8,85.5,36.4C725.7,454.8,684,461.3,666.6,461.5z
				 M687.9,470.6c-24.6-4.5,26.1-4.5,27.7-16.6C716.7,460.7,697.8,472.4,687.9,470.6z M362.4,505c-28,0.5-64.7-2.8-79.4-30.5
				c-3.9-11.4,19.7,19.1,30.6,14.5c38.8,8.4,83.8,3.9,115.5-21.5c17.6-9.3,6.9-39.7,8.4-45.5c27.8,10.3,23.8,47,0,59.3
				C415.7,496.7,388.7,503.5,362.4,505L362.4,505z M561.7,494.7c-33.7-3.3-72.7-12.9-91.7-43.4c-9.3-30.5,32.9-37.8,55.2-37.1
				c18.9,0.8,46.6-1.9,42,25.1c1.9,20,55.8,27.8,18.9,36.2C574.8,477.5,571.7,494.9,561.7,494.7z M383.2,514.5
				c-21.8,2.8-44.1,5.6-65.4-2.2c-11.7-3.1-31.7-16-9.9-5.2c46.9,15.6,103.1,8,141.9-23.4C432.9,501.6,407.5,512.4,383.2,514.5
				L383.2,514.5z M554.7,506.5c-27-3.5-54.8-12.1-75-31c24.2,17.5,54,25.9,83.5,27.8C564.1,510.1,558.4,505.9,554.7,506.5
				L554.7,506.5z"/>
		</g>
	</g>
</g>
<g id="Layer_1">
	
		<linearGradient id="SVGID_10_" gradientUnits="userSpaceOnUse" x1="1.5" y1="518.5709" x2="746.5" y2="518.5709" gradientTransform="matrix(1 0 0 -1 0 1150)">
		<stop  offset="0" style="stop-color:#000000"/>
		<stop  offset="1" style="stop-color:#000000;stop-opacity:0.4941"/>
	</linearGradient>
	<path class="st7" d="M91,113c0,0,13,44,8,59S2,275.2,2,365.5v566c0,0,15.8,75.3,29.5,106.5s32.5,88.8,113.8,98.8
		c75.8,4.2,79.5,12.8,228.8,12.8s154.3-4,228.8-12.8c81.3-10,100-67.5,113.8-98.8S746,931.5,746,931.5v-566
		c0-90.3-92-178.5-97-193.5s8-59,8-59"/>
	<g>
		<defs>
			<path id="SVGID_11_" d="M350,104.8v1.3l-259,7c0,0,13,44,8,59C94,187,2,275.2,2,365.5v566c0,0,15.8,75.3,29.5,106.5
				s32.5,88.8,113.8,98.8c75.8,4.2,79.5,12.8,228.8,12.8s154.3-4,228.8-12.8c81.3-10,100-67.5,113.8-98.8
				c13.8-31.2,29.5-106.4,29.5-106.4v-566c0-90.3-92-178.5-97-193.5s8-59,8-59l-259-7v-1.3l-24,0.7L350,104.8z"/>
		</defs>
		<clipPath id="SVGID_12_">
			<use xlink:href="#SVGID_11_"  style="overflow:visible;"/>
		</clipPath>
		<g class="st8">
			<path class="st9" d="M36,1048.5c13.8,32.2,36.4,79.3,109.2,88.2c75.8,4.2,79.5,12.8,228.8,12.8s154.3-4,228.8-12.8
				c72.8-9,95.4-56,109.2-88.2c-25.2,14.9-102.4,39.5-338,39.5S61.2,1063.4,36,1048.5L36,1048.5z"/>
		</g>
	</g>
	<path class="st10" d="M374,0.5c-94.3,0-275.6,5.5-282.7,9S70.1,30.7,70.1,30.7v77.8l10.8,5.3c0,0,144.7-5.3,190.7-5.3h204.8
		c46,0,190.7,5.3,190.7,5.3l10.8-5.3V30.7c0,0-14.1-17.7-21.2-21.2C649.7,6,468.3,0.5,374,0.5L374,0.5z"/>
	<g>
		<defs>
			<path id="SVGID_13_" d="M350,104.8v1.3l-259,7c0,0,13,44,8,59C94,187,2,275.2,2,365.5v566c0,0,15.8,75.3,29.5,106.5
				s32.5,88.8,113.8,98.8c75.8,4.2,79.5,12.8,228.8,12.8s154.3-4,228.8-12.8c81.3-10,100-67.5,113.8-98.8
				c13.8-31.2,29.5-106.4,29.5-106.4v-566c0-90.3-92-178.5-97-193.5s8-59,8-59l-259-7v-1.3l-24,0.7L350,104.8z"/>
		</defs>
		<clipPath id="SVGID_14_">
			<use xlink:href="#SVGID_13_"  style="overflow:visible;"/>
		</clipPath>
		<g class="st11">
			<path class="st12" d="M56.3,1086.6c16.3,23.1,42.3,44.4,89,50.2c75.8,4.2,79.5,12.8,228.8,12.8s154.3-4,228.8-12.8
				c46.6-5.7,72.7-27.1,89-50.2c-24.7,10.7-98.5,28-317.7,28S81,1097.3,56.3,1086.6L56.3,1086.6z"/>
		</g>
	</g>
	<path class="st13" d="M374,0.5c-94.3,0-275.6,5.5-282.7,9c-6.5,3.2-18.4,17.8-20.4,20.3C99.5,24.4,175.4,16.5,374,16.5
		c198.6,0,274.5,7.9,303.1,13.3c-2-2.5-13.9-17-20.4-20.3C649.6,6,468.3,0.5,374,0.5L374,0.5z"/>
	<path class="st14" d="M374,98.5c-188.5,0-269.2,4-303.9,7.4v2.6l10.8,5.3c0,0,144.7-5.3,190.7-5.3h204.8c46,0,190.7,5.3,190.7,5.3
		l10.8-5.3v-0.1C643.2,103.9,562.5,98.5,374,98.5L374,98.5z"/>
	<g>
		<defs>
			<path id="SVGID_15_" d="M350,104.8v1.3l-259,7c0,0,13,44,8,59C94,187,2,275.2,2,365.5v566c0,0,15.8,75.3,29.5,106.5
				s32.5,88.8,113.8,98.8c75.8,4.2,79.5,12.8,228.8,12.8s154.3-4,228.8-12.8c81.3-10,100-67.5,113.8-98.8
				c13.8-31.2,29.5-106.4,29.5-106.4v-566c0-90.3-92-178.5-97-193.5s8-59,8-59l-259-7v-1.3l-24,0.7L350,104.8z"/>
		</defs>
		<clipPath id="SVGID_16_">
			<use xlink:href="#SVGID_15_"  style="overflow:visible;"/>
		</clipPath>
		<g class="st15">
			
				<linearGradient id="SVGID_17_" gradientUnits="userSpaceOnUse" x1="485" y1="742" x2="485" y2="912.64" gradientTransform="matrix(1 0 0 -1 -116 1065.5)">
				<stop  offset="0" style="stop-color:#000000;stop-opacity:0.1647"/>
				<stop  offset="0.5" style="stop-color:#000000;stop-opacity:0.1412"/>
				<stop  offset="1" style="stop-color:#000000;stop-opacity:0"/>
			</linearGradient>
			<path class="st16" d="M-56,307.5c0,0,192,20,430,20s430-20,430-20v-188H-66L-56,307.5z"/>
		</g>
	</g>
	<g>
		<defs>
			<path id="SVGID_18_" d="M344,104.8v1.3l-259,7c0,0,13,44,8,59C88,187-4,275.2-4,365.5v566c0,0,15.8,75.3,29.5,106.5
				s32.5,88.8,113.8,98.8c75.8,4.2,79.5,12.8,228.8,12.8s154.3-4,228.8-12.8c81.3-10,100-67.5,113.8-98.8
				c13.8-31.2,29.5-106.4,29.5-106.4v-566c0-90.3-92-178.5-97-193.5s8-59,8-59l-259-7v-1.3l-24,0.7L344,104.8z"/>
		</defs>
		<clipPath id="SVGID_19_">
			<use xlink:href="#SVGID_18_"  style="overflow:visible;"/>
		</clipPath>
		<path class="st17" d="M380,104.8v1.3l259,7c0,0-13,44-8,59s97,103.2,97,193.5v566c0,0-15.8,75.3-29.5,106.5s-32.5,88.8-113.8,98.8
			c-75.8,4.2-79.5,12.8-228.8,12.8c-3.7,0-7,0-10.6,0c143.8-0.2,148.5-8.6,223.3-12.8c81.3-10,100-67.5,113.8-98.8
			c13.8-31.2,29.5-106.4,29.5-106.4v-566c0-90.3-92-178.5-97-193.5s8-59,8-59l-259-7v-0.8L380,104.8L380,104.8z M332,104.8l16,0.4
			l-8,0.2l-8-0.2V104.8z"/>
	</g>
	<g>
		<defs>
			<path id="SVGID_20_" d="M348,104.8v1.3l-259,7c0,0,13,44,8,59C92,187,0,275.2,0,365.5v566c0,0,15.8,75.3,29.5,106.5
				s32.5,88.8,113.8,98.8c75.8,4.2,79.5,12.8,228.8,12.8s154.3-4,228.8-12.8c81.3-10,100-67.5,113.8-98.8
				c13.8-31.2,29.5-106.4,29.5-106.4v-566c0-90.3-92-178.5-97-193.5s8-59,8-59l-259-7v-1.3l-24,0.7L348,104.8z"/>
		</defs>
		<clipPath id="SVGID_21_">
			<use xlink:href="#SVGID_20_"  style="overflow:visible;"/>
		</clipPath>
		<g class="st18">
			<path d="M181.8,110.5L89,113c0,0,13,44,8,59S0,275.2,0,365.5v566c0,0,15.8,75.3,29.5,106.5s32.5,88.8,113.8,98.8
				c75.8,4.2,79.5,12.8,228.8,12.8c20.2,0,37.6-0.1,53-0.2c-111.6-1.4-121.2-8.7-189.8-12.5c-81.3-10-100-67.5-113.8-98.8
				C107.8,1006.6,92,931.4,92,931.4v-566c0-90.3,92-178.5,97-193.5s-8-59-8-59L181.8,110.5L181.8,110.5z"/>
		</g>
	</g>
	<g>
		<defs>
			<path id="SVGID_22_" d="M374,0.5c-94.3,0-275.6,5.5-282.7,9c-6.5,3.2-18.4,17.8-20.4,20.3C99.5,24.5,175.4,16.5,374,16.5
				s274.5,7.9,303.1,13.3c-2-2.5-13.9-17-20.4-20.3C649.7,6,468.3,0.5,374,0.5L374,0.5z"/>
		</defs>
		<clipPath id="SVGID_23_">
			<use xlink:href="#SVGID_22_"  style="overflow:visible;"/>
		</clipPath>
		<g class="st19">
			<path d="M374,14C175.3,14,99.4,21.9,70.4,27.3l0.9,4.9C99.6,27,175.4,19,374,19s274.4,8,302.7,13.3l0.9-4.9
				C648.6,21.9,572.7,14,374,14L374,14z"/>
		</g>
	</g>
	<g>
		<defs>
			<path id="SVGID_24_" d="M374,0.5c-94.3,0-275.6,5.5-282.7,9c-6.5,3.2-18.4,17.8-20.4,20.3C99.5,24.5,175.4,16.5,374,16.5
				s274.5,7.9,303.1,13.3c-2-2.5-13.9-17-20.4-20.3C649.7,6,468.3,0.5,374,0.5L374,0.5z"/>
		</defs>
		<clipPath id="SVGID_25_">
			<use xlink:href="#SVGID_24_"  style="overflow:visible;"/>
		</clipPath>
		<g class="st20">
			<path d="M374-2c-47.2,0-116.1,1.4-174.2,3.2c-29,0.9-55.3,1.9-74.8,2.9c-9.7,0.5-17.8,1-23.7,1.5c-2.9,0.2-5.3,0.5-7.1,0.8
				s-2.8,0.2-4.1,0.9l2.3,4.5c-0.5,0.2,0.8-0.2,2.5-0.5s4-0.4,6.9-0.7c5.8-0.5,13.8-1,23.5-1.5c19.4-1,45.7-2,74.7-2.9
				C258,4.4,326.9,3,374,3c47.1,0,116,1.4,174,3.2c29,0.9,55.2,1.9,74.7,2.9c9.7,0.5,17.7,1,23.5,1.5c2.9,0.2,5.2,0.5,6.9,0.7
				s3,0.7,2.5,0.5l2.3-4.5c-1.3-0.7-2.3-0.7-4.1-0.9s-4.2-0.5-7.1-0.8c-5.9-0.5-13.9-1-23.7-1.5c-19.5-1-45.8-2-74.8-2.9
				C490.1-0.6,421.2-2,374-2L374-2z"/>
		</g>
	</g>
	<g>
		<defs>
			<path id="SVGID_26_" d="M374,0.5c-94.3,0-275.6,5.5-282.7,9S70.1,30.7,70.1,30.7v77.8l10.8,5.3c0,0,144.7-5.3,190.7-5.3h204.8
				c46,0,190.7,5.3,190.7,5.3l10.8-5.3V30.7c0,0-14.1-17.7-21.2-21.2C649.7,6,468.3,0.5,374,0.5L374,0.5z"/>
		</defs>
		<clipPath id="SVGID_27_">
			<use xlink:href="#SVGID_26_"  style="overflow:visible;"/>
		</clipPath>
		<g class="st21">
			<path class="st22" d="M91.3,9.5C84.2,13,70.1,30.7,70.1,30.7v77.8l10.8,5.3"/>
		</g>
	</g>
	<g>
		<defs>
			<path id="SVGID_28_" d="M374,0.5c94.3,0,275.7,5.5,282.7,9c7.1,3.5,21.2,21.2,21.2,21.2v77.8l-10.8,5.3c0,0-144.7-5.3-190.7-5.3
				H271.6c-46,0-190.7,5.3-190.7,5.3l-10.8-5.3V30.7c0,0,14.1-17.7,21.2-21.2C98.3,6,279.7,0.5,374,0.5L374,0.5z"/>
		</defs>
		<clipPath id="SVGID_29_">
			<use xlink:href="#SVGID_28_"  style="overflow:visible;"/>
		</clipPath>
		<g class="st23">
			<path class="st22" d="M656.7,9.5c7.1,3.5,21.2,21.2,21.2,21.2v77.8l-10.8,5.3"/>
		</g>
	</g>
	<g transform="translate(-116,-84.5)">
		<path class="st24" d="M186.1,134.3c-5.2,0.9-7.8,2-7.8,5.8s1,5,7.7,3.8h0.1L186.1,134.3L186.1,134.3L186.1,134.3z M793.9,134.3
			v9.7h0.1c6.7,1.1,7.7,0,7.7-3.8S799.1,135.2,793.9,134.3L793.9,134.3L793.9,134.3z"/>
		<g>
			<defs>
				<path id="SVGID_30_" d="M490,125c-101.9,0-197.9,0-303.9,9.3c-5.2,0.9-7.8,2-7.8,5.8s1,5,7.7,3.8c102.7-8.9,202.2-9,304-9
					s201.3,0.1,304,9c6.7,1.1,7.7,0,7.7-3.8s-2.5-4.9-7.8-5.8C687.9,125,591.9,125,490,125L490,125z"/>
			</defs>
			<clipPath id="SVGID_31_">
				<use xlink:href="#SVGID_30_"  style="overflow:visible;"/>
			</clipPath>
			<path class="st25" d="M490,125c-101.9,0-197.9,0-303.9,9.3c-5.2,0.9-7.8,2-7.8,5.8s1,5,7.7,3.8c102.7-8.9,202.2-9,304-9
				s201.3,0.1,304,9c6.7,1.1,7.7,0,7.7-3.8s-2.5-4.9-7.8-5.8C687.9,125,591.9,125,490,125L490,125z M490,126.5
				c101.9,0,197.8,0,303.8,9.3h0c2.4,0.4,4.2,0.9,5.1,1.6c0.9,0.6,1.3,1.2,1.3,2.8c0,0.9-0.1,1.6-0.2,1.9s-0.2,0.4-0.4,0.5
				c-0.4,0.2-2.1,0.4-5.4-0.1l-0.1,0h-0.1c-102.8-8.9-202.3-9-304.1-9s-201.3,0.1-304.1,9h-0.1l-0.1,0c-3.3,0.6-5,0.4-5.4,0.1
				c-0.2-0.1-0.3-0.2-0.4-0.5s-0.2-1-0.2-1.9c0-1.6,0.3-2.2,1.3-2.8c0.9-0.6,2.7-1.1,5.1-1.6h0C292.2,126.6,388.1,126.5,490,126.5
				L490,126.5z"/>
		</g>
	</g>
	<g>
		<defs>
			<path id="SVGID_32_" d="M358,104.8v1.3l-259,7c0,0,13,44,8,59c-5,15-97,103.2-97,193.5v566c0,0,15.8,75.3,29.5,106.5
				s32.5,88.8,113.8,98.8c75.8,4.2,79.5,12.8,228.8,12.8s154.3-4,228.8-12.8c81.3-10,100-67.5,113.8-98.8
				c13.8-31.2,29.5-106.4,29.5-106.4v-566c0-90.3-92-178.5-97-193.5s8-59,8-59l-259-7v-1.3l-24,0.7L358,104.8z"/>
		</defs>
		<clipPath id="SVGID_33_">
			<use xlink:href="#SVGID_32_"  style="overflow:visible;"/>
		</clipPath>
		<defs>
			<filter id="Adobe_OpacityMaskFilter" filterUnits="userSpaceOnUse" x="22" y="104.8" width="396" height="1044.8">
				<feColorMatrix  type="matrix" values="1 0 0 0 0  0 1 0 0 0  0 0 1 0 0  0 0 0 1 0"/>
			</filter>
		</defs>
		<mask maskUnits="userSpaceOnUse" x="22" y="104.8" width="396" height="1044.8" id="h">
			
				<linearGradient id="SVGID_34_" gradientUnits="userSpaceOnUse" x1="223.257" y1="-83.8" x2="223.257" y2="960.2999" gradientTransform="matrix(1 0 0 -1 0 1150)">
				<stop  offset="0" style="stop-color:#000000"/>
				<stop  offset="0.6644" style="stop-color:#FFFFFF"/>
				<stop  offset="0.9595" style="stop-color:#FFFFFF"/>
				<stop  offset="1" style="stop-color:#000000"/>
			</linearGradient>
			<path class="st26" d="M75.1,188.3h296.3v1044.1H75.1L75.1,188.3z"/>
		</mask>
		<path class="st27" d="M370,104.8v1.3l-259,7c0,0,13,44,8,59c-5,15-97,103.2-97,193.5v566c0,0,15.8,75.3,29.5,106.5
			s32.5,88.8,113.8,98.8c75.8,4.2,79.5,12.8,228.8,12.8c3.7,0,7,0,10.6,0c-143.8-0.2-148.5-8.6-223.3-12.8
			c-81.3-10-100-67.5-113.8-98.8C53.8,1006.8,38,931.6,38,931.6v-566c0-90.3,92-178.5,97-193.5s-8-59-8-59l259-7v-0.8l-16-0.4
			L370,104.8z M418,104.8l-16,0.4l8,0.2l8-0.2V104.8z"/>
	</g>
	<g transform="translate(-116,-56.5)">
		<path class="st24" d="M186.1,134.3c-5.2,0.9-7.8,2-7.8,5.8s1,5,7.7,3.8h0.1L186.1,134.3L186.1,134.3L186.1,134.3z M793.9,134.3
			v9.7h0.1c6.7,1.1,7.7,0,7.7-3.8S799.1,135.2,793.9,134.3L793.9,134.3L793.9,134.3z"/>
		<g>
			<defs>
				<path id="SVGID_35_" d="M490,125c-101.9,0-197.9,0-303.9,9.3c-5.2,0.9-7.8,2-7.8,5.8s1,5,7.7,3.8c102.7-8.9,202.2-9,304-9
					s201.3,0.1,304,9c6.7,1.1,7.7,0,7.7-3.8s-2.5-4.9-7.8-5.8C687.9,125,591.9,125,490,125L490,125z"/>
			</defs>
			<clipPath id="SVGID_36_">
				<use xlink:href="#SVGID_35_"  style="overflow:visible;"/>
			</clipPath>
			<path class="st28" d="M490,125c-101.9,0-197.9,0-303.9,9.3c-5.2,0.9-7.8,2-7.8,5.8s1,5,7.7,3.8c102.7-8.9,202.2-9,304-9
				s201.3,0.1,304,9c6.7,1.1,7.7,0,7.7-3.8s-2.5-4.9-7.8-5.8C687.9,125,591.9,125,490,125L490,125z M490,126.5
				c101.9,0,197.8,0,303.8,9.3h0c2.4,0.4,4.2,0.9,5.1,1.6c0.9,0.6,1.3,1.2,1.3,2.8c0,0.9-0.1,1.6-0.2,1.9s-0.2,0.4-0.4,0.5
				c-0.4,0.2-2.1,0.4-5.4-0.1l-0.1,0h-0.1c-102.8-8.9-202.3-9-304.1-9s-201.3,0.1-304.1,9h-0.1l-0.1,0c-3.3,0.6-5,0.4-5.4,0.1
				c-0.2-0.1-0.3-0.2-0.4-0.5s-0.2-1-0.2-1.9c0-1.6,0.3-2.2,1.3-2.8c0.9-0.6,2.7-1.1,5.1-1.6h0C292.2,126.6,388.1,126.5,490,126.5
				L490,126.5z"/>
		</g>
	</g>
</g>
<g id="Layer_4" class="st29">
	<path id="SVGID_1_" class="st30" d="M348,104.8v1.3l-259,7c0,0,13,44,8,59C92,187,0,275.2,0,365.5v566c0,0,15.8,75.3,29.5,106.5
		s32.5,88.8,113.8,98.8c75.8,4.2,79.5,12.8,228.8,12.8s154.3-4,228.8-12.8c81.3-10,100-67.5,113.8-98.8
		c13.8-31.2,29.5-106.4,29.5-106.4v-566c0-90.3-92-178.5-97-193.5s8-59,8-59l-259-7v-1.3l-24,0.7L348,104.8z"/>
</g>
<g id="Layer_5">
</g>
</svg>
